<svg width="940" height="568" viewBox="0 0 940 568" fill="none" xmlns="http://www.w3.org/2000/svg">
<rect width="1440" height="1024" transform="translate(-285 -190)" fill="white"/>
<path fill-rule="evenodd" clip-rule="evenodd" d="M669.989 -5.65057C667.619 -5.04487 665.862 -2.29999 665.937 0.680435C666.153 9.50875 680.697 43.1395 685.788 46.5887C689.873 49.3552 690.33 51.6121 688.907 61.9859L687.239 74.1432L709.143 89.3169C735.182 107.356 747.273 118.614 752.757 129.923C756.365 137.362 756.427 140.006 753.339 154.535C751.435 163.486 746.97 175.062 743.417 180.256C739.863 185.45 737.567 191.24 738.315 193.127C739.27 195.528 737.197 197.007 731.39 198.059C724.477 199.314 720.141 203.162 720.141 208.041C720.141 208.594 722.937 209.046 726.353 209.046C730.22 209.046 732.565 210.409 732.565 212.651C732.565 215.454 735.746 216.226 746.853 216.117L761.141 215.98L774.398 200.768L787.655 185.558L797.666 189.361L807.677 193.166L798.076 196.346C783.917 201.035 775.978 213.853 787.232 213.853C789.965 213.853 792.202 214.935 792.202 216.257C792.202 218.913 970.935 219.158 1015.84 216.562L1041.93 215.055L1010.92 194.295L979.91 173.533L956.885 181.294L933.861 189.053L909.623 173.473C896.292 164.904 884.917 157.506 884.345 157.028C883.773 156.552 882.804 150.298 882.191 143.128C881.373 133.615 880.188 130.425 877.79 131.315C872.47 133.29 821.682 89.9178 814.565 77.3183C808.493 66.5695 807.682 66.0864 778.61 55.8328C762.249 50.0642 748.583 45.072 748.237 44.7403C747.895 44.4062 751.018 40.1375 755.178 35.2534C760.995 28.4297 761.807 26.3746 758.691 26.3746C756.46 26.3746 755.327 25.293 756.172 23.971C758.05 21.0315 751.855 20.9786 739.193 23.8196C731.03 25.6535 728.386 25.1175 720.705 20.0749C715.775 16.8396 710.088 14.8062 708.065 15.5585C706.042 16.3085 703.739 15.9575 702.946 14.7774C700.424 11.023 677.668 -7.28741 675.884 -6.99657C674.942 -6.84275 672.29 -6.23705 669.989 -5.65057ZM690.594 6.81435L701.505 16.0945L700.648 32.6023C699.86 47.7159 699.482 48.7086 696.175 44.3533C691.739 38.5126 670.444 0.947229 670.444 -1.03572C670.444 -5.40781 681.112 -1.25444 690.594 6.81435ZM28.1109 3.60077C26.7442 4.08629 20.803 5.68227 14.9089 7.15085C8.29425 8.79489 4.48994 11.0158 4.96952 12.9507C6.95243 20.9474 82.8745 146.7 83.5976 143.181C84.0473 140.982 75.738 124.349 65.1302 106.214C18.4424 26.401 21.0738 31.7009 24.3489 24.0552C25.9839 20.2335 29.1794 15.484 31.4456 13.4987C35.1878 10.225 38.341 12.208 65.3861 34.84C94.6701 59.3492 98.9291 62.2623 98.9291 57.7893C98.9291 55.7415 57.6732 20.1446 40.8209 7.6532C33.5975 2.29804 32.6383 1.99278 28.1109 3.60077ZM26.789 12.5541C26.702 15.9167 20.9272 23.971 18.6064 23.971C17.7789 23.971 15.8979 21.791 14.4219 19.1254C12.1681 15.0514 12.6502 13.9265 17.441 12.0662C25.3254 9.00641 26.8809 9.08813 26.789 12.5541ZM684.133 29.6218C691.876 43.2092 692.728 45.9397 689.009 45.2451C686.099 44.6994 682.009 38.5199 677.471 27.8119C666.657 2.28361 668.901 2.89412 684.133 29.6218ZM728.09 28.1773C729.984 30.3669 729.658 31.1818 726.895 31.1818C724.639 31.1818 720.805 36.5417 717.438 44.4014C708.351 65.6081 700.764 61.1807 702.235 35.525C702.959 22.9519 704.064 19.2384 707.302 18.5173C711.688 17.5391 723.732 23.1346 728.09 28.1773ZM3.31709 28.6917C2.50455 29.9656 11.6587 53.2706 23.663 80.4814C42.7342 123.707 46.5112 130.536 53.5732 134.567C63.7312 140.364 64.3102 135.98 54.505 127.5C47.5946 121.522 19.3816 61.462 11.8004 36.5898C8.7291 26.5092 6.20946 24.1633 3.31709 28.6917ZM749.753 27.2303C746.958 29.5425 732.565 30.7876 732.565 28.7181C732.565 27.4298 736.665 26.3746 741.677 26.3746C746.687 26.3746 750.322 26.7592 749.753 27.2303ZM746.232 36.0586C742.132 38.7242 736.638 40.3946 734.024 39.7697C729.549 38.7049 729.517 38.878 733.492 42.7213C736.114 45.2571 738.387 45.894 739.488 44.4014C740.465 43.0794 743.499 40.4163 746.232 38.4838C748.965 36.5513 748.071 38.2891 744.244 42.3463C740.418 46.4012 732.59 51.1098 726.85 52.8067C721.11 54.5036 717.721 56.3423 719.321 56.8928C720.919 57.4432 727.628 55.3977 734.23 52.35L746.232 46.805L776.55 57.621C813.609 70.8407 813.934 71.2685 816.73 110.5C817.813 125.702 818.365 138.557 817.955 139.064C817.547 139.571 810.746 137.826 802.844 135.182C794.94 132.538 778.674 127.265 766.697 123.46C751.649 118.681 745.305 115.571 746.17 113.396C746.856 111.665 746.361 110.882 745.069 111.653C742.87 112.968 706.323 62.9762 708.174 61.1855C708.646 60.7289 716.819 62.445 726.336 64.9976C735.853 67.5502 745.34 69.562 747.42 69.4683C749.5 69.3745 744.123 67.3387 735.47 64.9471C726.818 62.5556 718.685 59.5776 717.398 58.3325C715.452 56.4505 720.372 40.0461 724.003 36.311C725.397 34.8785 740.763 31.6913 747.475 31.4437C753.649 31.2154 753.642 31.2442 746.232 36.0586ZM711.879 72.6434C721.207 86.1947 729.75 98.662 730.863 100.352C731.979 102.041 723.926 97.1742 712.967 89.5357C702.009 81.8971 692.455 74.2706 691.739 72.5857C690.502 69.687 692.676 48.0068 694.202 48.0068C694.597 48.0068 702.553 59.092 711.879 72.6434ZM100.793 61.385L88.9897 67.3267V112.398V157.47L100.072 163.325C114.365 170.877 117.392 168.125 104.127 159.633L93.9594 153.125V113.528C93.9594 68.1463 91.3453 70.7325 120.132 87.6368C130.29 93.6001 140.019 98.4601 141.75 98.4337C143.482 98.4097 137.631 94.2659 128.747 89.228C114.099 80.9189 112.67 79.4142 113.386 73.0496C113.821 69.1918 115.036 65.1827 116.087 64.1395C118.691 61.5629 148.216 77.8375 156.829 86.5961C160.655 90.4899 164.85 93.6746 166.147 93.6746C175.214 93.6746 157.313 77.5034 134.415 65.0072C124.548 59.6232 115.602 55.268 114.536 55.3304C113.468 55.3905 107.283 58.1162 100.793 61.385ZM109.962 70.5571C108.098 77.7413 105.859 78.424 101.364 73.1866C97.9227 69.1726 97.9575 69.0981 105.121 65.3654C111.363 62.1157 111.982 62.7791 109.962 70.5571ZM195.006 76.9313C180.199 79.3133 167.431 81.8947 166.636 82.6615C162.78 86.3942 170.088 86.6562 189.472 83.4859C201.173 81.5726 210.747 80.342 210.747 80.7554C210.747 81.1664 207.674 83.1999 203.914 85.2741C197.374 88.8819 197.346 88.9684 203.293 87.3244C206.709 86.3798 211.903 85.5289 214.835 85.4352C220.244 85.2597 230.626 77.7894 230.626 74.0735C230.626 71.4584 227.406 71.7156 195.006 76.9313ZM195.838 91.92C170.555 95.7585 148.666 99.8614 147.195 101.042C143.748 103.803 115.314 168.01 116.87 169.515C117.516 170.139 121.852 169.164 126.501 167.344C131.153 165.525 148.532 158.975 165.123 152.793L195.284 141.549L215.856 118.213C227.17 105.378 238.096 92.9776 240.136 90.6557C242.178 88.3339 243.388 86.0986 242.829 85.6875C242.268 85.2789 221.122 88.0815 195.838 91.92ZM831.182 99.9239C840.624 107.409 841.665 109.11 838.892 112.543C836.087 116.013 836.189 116.129 839.71 113.473C843.124 110.894 845.86 112.129 857.829 121.662C866.588 128.637 871.046 133.742 869.602 135.139C868.323 136.376 858.49 142.482 847.753 148.707C829.45 159.316 828.155 160.614 826.99 169.512L825.747 179.001L810.217 179.718C794.381 180.446 792.739 179.811 797.239 174.694C798.643 173.098 804.706 165.315 810.711 157.401C822.505 141.859 822.609 141.099 818.444 100.284C817.937 95.3283 818.141 91.271 818.894 91.271C819.649 91.271 825.178 95.1648 831.182 99.9239ZM204.535 108.041C192.235 115.898 180.494 122.328 178.444 122.332C174.066 122.337 154.324 106.589 156.307 104.673C157.88 103.149 211.515 94.2082 220.687 93.939C225.356 93.802 221.345 97.304 204.535 108.041ZM206.868 118.77C193.117 133.826 192.571 134.151 186.885 130.548L181.041 126.844L199.001 115.251C208.879 108.875 217.871 103.575 218.985 103.474C220.098 103.373 214.646 110.254 206.868 118.77ZM169.635 121.669C178.673 129.132 185.725 136.242 185.302 137.468C184.43 139.996 128.606 161.64 126.99 160.076C126.126 159.239 144.086 115.961 147.811 109.899C149.963 106.399 153.365 108.233 169.635 121.669ZM766.23 126.368C771.302 127.599 771.896 128.827 770.596 135.369C769.766 139.537 768.253 145.111 767.234 147.755C765.48 152.305 765.244 152.24 762.856 146.553C761.467 143.248 758.48 136.343 756.216 131.209C752.382 122.513 752.382 121.979 756.231 123.409C758.502 124.253 763.002 125.582 766.23 126.368ZM66.5167 129.728C66.3726 131.711 64.8494 148.476 63.1299 166.984C61.4079 185.491 60.4139 201.715 60.9208 203.037C61.716 205.119 160.524 276.428 170.319 281.992C173.276 283.67 173.435 283.17 171.223 279.173C169.745 276.497 146.129 258.36 118.746 238.867C91.3627 219.374 69.8315 202.66 70.8975 201.725C71.966 200.787 78.9882 198.184 86.5048 195.935C94.0215 193.687 101.73 191.365 103.633 190.777C105.536 190.188 106.468 189.099 105.703 188.356C104.935 187.616 96.4144 189.469 86.7658 192.473C77.1171 195.48 68.5071 197.245 67.6299 196.396C66.7503 195.548 67.292 181.196 68.8276 164.503C70.6565 144.638 70.7857 132.766 69.2004 130.139C67.2026 126.829 66.7304 126.757 66.5167 129.728ZM799.01 137.196C808.905 140.359 817.011 143.489 817.018 144.15C817.065 147.709 779.154 192.132 777.109 190.911C775.777 190.113 774.992 190.382 775.367 191.51C775.742 192.637 772.482 197.754 768.121 202.881L760.19 212.204L756.035 203.775C751.957 195.504 752.004 195.163 758.646 185.457C762.751 179.456 766.747 168.68 768.809 158.054C773.916 131.728 774.756 129.197 778.018 130.368C779.668 130.959 789.116 134.033 799.01 137.196ZM205.778 134.273C205.778 135.451 218.915 141.051 234.975 146.719C251.034 152.387 284.286 164.138 308.871 172.834L353.574 188.642L363.995 205.453L374.417 222.266L378.343 284.759C380.505 319.13 382.885 351.847 383.633 357.467C384.659 365.184 384.152 367.682 381.563 367.682C377.776 367.682 208.71 294.104 204.2 290.493C201.454 288.294 196.362 193.315 198.862 190.899C199.481 190.301 218.165 193.68 240.379 198.41C262.594 203.14 281.158 206.635 281.63 206.179C282.102 205.722 250.413 197.903 211.209 188.806C172.006 179.708 138.677 171.332 137.144 170.188C135.568 169.015 131.786 169.067 128.447 170.31C120.957 173.098 121.949 173.447 159.701 181.282C176.044 184.674 190.54 188.539 191.92 189.873C194.516 192.384 198.999 268.561 197.776 289.409L197.081 301.273L150.169 234.649C124.369 198.004 101.031 166.871 98.3104 165.462C94.357 163.414 93.7705 163.554 95.3932 166.142C102.627 177.677 194.64 307.193 198.032 310.611C201.894 314.505 378.768 374.892 386.312 374.892C390.539 374.892 390.603 377.863 384.54 292.243L379.421 219.987L369.201 202.609C359.99 186.95 357.734 184.753 346.363 180.398C322.874 171.397 210.37 132.132 208.066 132.132C206.806 132.132 205.778 133.096 205.778 134.273ZM879.994 149.558C880.826 157.821 882.27 175.833 883.204 189.587C884.638 210.68 884.36 214.293 881.418 212.683C876.388 209.926 833.423 184.316 832.031 183.246C831.388 182.751 832.506 181.22 834.516 179.845C837.533 177.783 837.411 177.583 833.823 178.699C830.198 179.828 829.475 178.528 829.475 170.875C829.475 161.864 829.892 161.455 852.459 148.353C865.1 141.015 876.128 134.903 876.965 134.773C877.8 134.641 879.164 141.297 879.994 149.558ZM764.327 166.984C763.117 172.271 759.206 180.698 755.635 185.712C749.281 194.625 749.229 195.012 753.277 203.22C755.553 207.837 757.414 211.914 757.414 212.284C757.414 212.654 752.193 213.216 745.815 213.536C735.572 214.048 734.591 213.68 737.423 210.38C739.185 208.325 742.729 206.642 745.293 206.642C747.86 206.642 749.959 205.561 749.959 204.239C749.959 201.078 748.546 201.203 740.517 205.059C736.551 206.965 731.266 207.594 727.596 206.597L721.384 204.914L728.764 202.03C732.824 200.446 738.137 199.65 740.567 200.266C745.75 201.578 745.941 200.838 742.189 194.055C739.903 189.923 740.219 188.411 743.909 185.801C746.391 184.044 747.668 182.607 746.747 182.607C745.825 182.607 747.194 178.552 749.788 173.593C752.382 168.637 755.277 159.876 756.219 154.129L757.933 143.679L762.227 150.524C765.619 155.93 766.061 159.391 764.327 166.984ZM566.702 162.821C563.626 163.311 561.111 164.335 561.111 165.094C561.111 167.419 588.854 216.663 589.697 215.831C590.129 215.403 590.85 206.503 591.299 196.052C592.025 179.148 591.612 176.978 587.577 176.403C581.934 175.603 573.225 168.212 574.877 165.626C576.601 162.926 573.252 161.777 566.702 162.821ZM913.219 178.703C923.059 184.861 931.584 190.692 932.158 191.661C932.735 192.63 933.975 198.562 934.917 204.84L936.629 216.257H915.828C902.952 216.257 893.529 215.113 891.086 213.252C888.169 211.029 886.691 203.727 885.411 185.188L883.682 160.131L889.501 163.818C892.704 165.847 903.376 172.545 913.219 178.703ZM564.644 186.212C576.957 214.517 580.053 219.679 581.909 215.004C582.796 212.767 579.327 203.914 573.627 193.877C558.8 167.755 555.326 164.789 564.644 186.212ZM1009.33 196.06C1022.52 204.919 1032.98 212.495 1032.56 212.897C1032.15 213.296 1010.99 214.228 985.548 214.968L939.283 216.314L937.548 204.114C936.594 197.403 936.206 191.567 936.688 191.144C940.604 187.705 973.725 178.1 978.849 178.917C982.422 179.487 996.141 187.202 1009.33 196.06ZM833.073 187.308L840.395 191.978L833.336 194.574C827.41 196.754 823.24 196.026 807.374 190.039L788.475 182.907L807.111 182.773C821.56 182.669 827.392 183.688 833.073 187.308ZM595.071 186.614C593.297 188.327 592.708 223.467 594.453 223.467C595.024 223.467 597.106 224.066 599.079 224.799C601.619 225.741 604.305 222.227 608.268 212.781C611.794 204.376 615.375 199.396 617.929 199.333C620.717 199.266 619.291 197.007 613.387 192.122C605.075 185.251 598.518 183.277 595.071 186.614ZM620.606 193.026C623.026 196.004 626.457 197.115 631.166 196.447C635.003 195.903 638.141 196.35 638.141 197.444C638.141 198.538 635.418 199.432 632.091 199.432C620.638 199.432 614.336 203.523 610.236 213.62C605.749 224.674 606.303 225.023 619.823 219.631C630.475 215.384 641.108 206.938 639.322 204.14C638.688 203.15 639.923 201.689 642.067 200.893C648.945 198.338 639.406 191.392 631.619 193.283C627.839 194.202 623.568 193.567 621.13 191.724C617.415 188.914 617.363 189.039 620.606 193.026ZM845.268 197.795C844.344 199.357 844.463 199.869 845.534 198.934C847.557 197.17 860.046 202.809 872.959 211.315L880.414 216.226L837.463 216.24C795.281 216.257 794.56 216.17 797.172 211.45C798.635 208.806 802.308 206.604 805.334 206.558C810.689 206.474 825.735 199.65 820.778 199.554C814.839 199.437 796.632 206.001 794.759 208.935C792.155 213.007 784.387 210.346 786.121 205.974C788.355 200.345 810.247 194.069 817.87 196.874C824.855 199.441 838.569 197.893 840.88 194.276C842.925 191.072 847.214 194.512 845.268 197.795ZM636.109 214.529C634.655 216.223 627.705 219.612 620.665 222.061C611.337 225.306 608.768 227.119 611.198 228.741C613.355 230.181 611.506 230.39 605.975 229.327L597.415 227.686L601.992 234.591C604.511 238.386 612.562 249.972 619.883 260.331C627.205 270.693 632.55 280.182 631.758 281.422C630.965 282.663 631.797 283.379 633.609 283.016C635.418 282.653 636.608 283.737 636.255 285.427C635.9 287.116 637.426 289.171 639.642 289.994C641.861 290.818 646.769 298.089 650.548 306.153C657.312 320.574 657.451 320.694 659.136 313.601C660.077 309.636 661.807 304.081 662.98 301.257C664.906 296.613 663.81 295.726 651.487 291.976C643.993 289.698 638.4 287.314 639.053 286.679C640.166 285.605 677.017 296.502 698.709 304.324C704.005 306.232 708.723 307.419 709.195 306.963C709.668 306.506 709.081 292.671 707.893 276.216C706.706 259.764 706.263 245.463 706.912 244.439C707.558 243.415 706.964 242.874 705.592 243.237C704.221 243.6 701.597 241.951 699.761 239.574C697.924 237.194 683.288 230.637 667.234 224.999C651.179 219.362 638.81 214.007 639.749 213.101C640.686 212.192 640.845 211.45 640.102 211.45C639.359 211.45 637.56 212.836 636.109 214.529ZM582.863 226.022C582.13 233.209 582.518 240.271 583.723 241.715C584.928 243.16 585.087 245.225 584.073 246.306C583.062 247.388 583.462 247.595 584.968 246.768C588.265 244.951 604.882 256.44 603.912 259.865C603.537 261.194 604.424 261.566 605.885 260.694C608.82 258.942 616.339 263.91 614.679 266.506C614.105 267.402 615.822 268.296 618.493 268.491C622.479 268.782 620.884 265.379 609.625 249.57C602.076 238.968 595.894 229.57 595.886 228.683C595.879 227.799 593.248 223.895 590.035 220.014L584.195 212.954L582.863 226.022ZM634.27 235.262C635.038 236.459 633.425 236.875 630.689 236.182C624.887 234.714 624.154 233.082 629.298 233.082C631.268 233.082 633.504 234.062 634.27 235.262ZM384.687 238.468C384.687 240.571 396.987 252.207 412.02 264.328C427.053 276.449 439.353 287.193 439.353 288.203C439.353 289.212 428.651 304.367 415.571 321.877C402.488 339.389 392.29 354.205 392.904 354.801C393.52 355.395 404.898 341.238 418.187 323.336C433.027 303.35 443.451 291.409 445.2 292.395C446.768 293.274 460.648 304.223 476.047 316.724C496.428 333.265 503.368 340.238 501.559 342.346C500.19 343.939 461.588 369.396 415.775 398.911C369.959 428.427 332.932 453.023 333.494 453.566C334.055 454.107 373.224 429.574 420.538 399.044C496.035 350.328 507.187 343.862 511.685 346.189C518.759 349.852 520.871 346.864 515.002 341.5C512.346 339.072 484.453 316.216 453.02 290.71C421.587 265.203 393.354 242.155 390.278 239.49C385.611 235.447 384.687 235.279 384.687 238.468ZM711.042 284.146L712.622 310.854L698.988 328.376C691.488 338.012 685.353 346.422 685.353 347.062C685.353 347.701 691.782 348.633 699.641 349.133L713.929 350.042L698.526 350.054C689.635 350.059 681.494 351.371 679.268 353.159C676.895 355.063 675.414 355.27 675.414 353.695C675.414 352.292 676.532 350.472 677.899 349.655C679.265 348.838 687.013 339.745 695.114 329.451L709.846 310.732L688.76 304.093C677.161 300.442 667.07 298.038 666.334 298.75C665.599 299.461 663.062 309.787 660.696 321.699C657.878 335.89 654.091 346.723 649.708 353.128L643.024 362.899L648.22 372.753C651.077 378.171 652.215 381.887 650.749 381.012C649.281 380.135 648.081 380.562 648.081 381.961C648.081 386.302 651.925 384.788 658.209 377.969C661.521 374.373 662.274 372.886 659.884 374.659C652.673 380.007 654.998 373.885 662.99 366.48C667.09 362.68 670.444 360.502 670.444 361.642C670.444 362.781 673.205 361.204 676.577 358.14L682.709 352.566L699.728 358.433C713.015 363.014 718.581 363.838 725.128 362.197L733.512 360.096L725.461 355.164C718.039 350.619 717.468 349.369 718.153 339.135L718.899 328.035L742.505 314.164C763.591 301.776 770.531 295.608 761.38 297.394C757.891 298.074 747.977 288.648 749.959 286.537C750.643 285.811 749.1 284.917 746.528 284.554C741.118 283.785 736.293 279.685 736.293 275.853C736.293 274.394 734.28 272.914 731.82 272.565C726.043 271.743 719.836 266.751 721.451 264.222C722.84 262.05 718.342 258.737 712.938 257.947C710.058 257.524 709.732 262.011 711.042 284.146ZM273.455 324.982C307.261 339.69 334.647 351.989 334.311 352.316C333.703 352.902 324.153 349.809 244.914 323.343C203.551 309.53 203.293 309.398 203.293 302.252C203.293 293.592 195.463 291.054 273.455 324.982ZM743.126 316.176C720.979 328.919 720.141 329.713 720.141 337.986C720.141 346.107 720.509 346.492 726.975 345.088L733.808 343.608L727.931 346.864C722.209 350.035 722.748 350.542 748.387 366.112C762.871 374.907 775.133 382.103 775.635 382.103C776.135 382.103 776.301 374.263 775.998 364.677C775.697 355.092 775.871 351.578 776.381 356.866C778.371 377.44 779.934 382.56 783.786 381.13C785.878 380.353 786.83 380.788 785.972 382.13C785.016 383.627 792.45 384.507 806.042 384.507H827.631L825.956 371.888C824.962 364.403 822.557 357.979 820.045 356.094C817.714 354.349 816.116 351.835 816.491 350.508C816.866 349.181 816.071 348.754 814.727 349.559C811.842 351.285 777.464 329.741 776.92 325.867C776.714 324.408 775.765 328.083 774.808 334.032L773.068 344.848L772.696 331.328C772.271 315.89 769.945 302.747 767.664 302.867C766.809 302.913 755.767 308.902 743.126 316.176ZM646.895 323.817C645.934 330.097 641.334 341.324 636.673 348.768C632.014 356.212 628.202 363.437 628.202 364.824C628.202 366.213 625.774 367.694 622.805 368.114C616.521 369.011 613.477 374.892 619.299 374.892C621.463 374.892 623.267 376.246 623.307 377.897C623.349 379.565 624.509 379.029 625.916 376.695C627.31 374.381 630.11 372.489 632.14 372.489C635.112 372.489 635.291 371.511 633.057 367.475C631.532 364.718 630.977 361.791 631.827 360.971C632.675 360.151 634.014 361.865 634.802 364.783C635.592 367.699 637.749 370.085 639.595 370.085C641.466 370.085 642.358 368.583 641.61 366.694C640.87 364.829 643.056 359.149 646.473 354.075C649.887 348.999 653.92 340.269 655.433 334.674C657.737 326.167 657.516 323.507 654.091 318.449C651.838 315.123 649.691 312.4 649.321 312.4C648.948 312.4 647.857 317.536 646.895 323.817ZM213.232 324.139C213.232 327.335 247.94 402.185 250.644 404.817C256.57 410.586 251.792 396.258 237.246 364.644C228.586 345.824 220.794 328.535 219.929 326.22C218.319 321.906 213.232 320.324 213.232 324.139ZM266.674 346.651C265.948 349.626 260.884 375.243 255.422 403.584L245.493 455.107L229.364 478.099C220.49 490.747 213.192 502.712 213.143 504.693C212.996 510.543 236.587 552.839 239.624 552.17C241.154 551.831 258.533 533.338 278.243 511.074L314.077 470.591L355.594 470.915C384.582 471.141 397.111 470.432 397.111 468.567C397.111 466.69 385.368 466.125 357.507 466.663L317.906 467.43L323.873 460.219C336.416 445.062 382.679 383.699 383.919 380.575C387.999 370.285 377.59 381.324 354.709 411.547C327.416 447.603 253.931 532.954 261.18 520.181C261.97 518.79 284.408 484.731 311.043 444.493C337.681 404.255 358.996 370.874 358.412 370.309C356.938 368.884 361.076 362.831 300.227 455.412C269.817 501.681 243.734 540.984 242.265 542.753C240.205 545.234 237.114 541.196 228.735 525.065L217.876 504.161L234.294 480.909L250.711 457.655L261.791 400.265C274.548 334.171 273.515 341.242 270.431 341.242C269.092 341.242 267.399 343.675 266.674 346.651ZM471.656 378.493C438.173 397.609 409.433 415.167 407.788 417.505C406.076 419.945 404.486 432.451 404.061 446.791L403.323 471.819L477.357 517.095C518.076 541.996 552.322 562.371 553.463 562.371C554.601 562.371 555.083 557.775 554.534 552.156C552.861 535.028 538.745 352.349 538.745 347.852C538.747 345.538 537.351 343.665 535.641 343.689C533.934 343.713 505.14 359.375 471.656 378.493ZM848.513 351.16C837.804 354.972 828.163 357.568 827.089 356.926C826.018 356.284 826.53 362.19 828.225 370.049C829.919 377.907 830.638 384.983 829.822 385.773C829.005 386.564 831.11 386.257 834.496 385.093C837.883 383.928 859.062 382.733 881.555 382.437C904.05 382.142 923.049 381.322 923.777 380.618C924.505 379.916 923.129 378.272 920.721 376.969C918.31 375.664 917.095 373.414 918.017 371.97C919.009 370.419 918.551 370.028 916.899 371.016C913.1 373.287 901.17 365.444 903.198 362.012C904.087 360.502 903.931 360.043 902.85 360.988C900.308 363.206 891.047 358.466 892.741 355.815C893.449 354.707 892.083 353.953 889.705 354.133C887.329 354.313 885.62 353.236 885.908 351.741C886.196 350.244 884.519 349.162 882.181 349.338C879.842 349.511 878.115 348.573 878.342 347.251C879.114 342.762 868.044 344.211 848.513 351.16ZM541.235 452.624C545.543 506.611 548.538 551.298 547.887 551.928C547.236 552.56 520.593 537.155 488.68 517.696C456.767 498.239 426.278 479.652 420.926 476.395C409.205 469.259 407.672 470.283 452.463 455.338C471.289 449.057 486.272 443.51 485.755 443.012C485.241 442.512 468.719 446.983 449.039 452.944C429.362 458.905 411.839 463.791 410.099 463.803C407.659 463.82 407.306 459.282 408.564 443.995C409.461 433.09 410.944 422.786 411.861 421.101C414.241 416.729 529.707 351.042 531.725 352.912C532.644 353.765 536.923 398.635 541.235 452.624ZM690.688 365.656C684.759 368.09 679.136 369.624 678.192 369.059C677.25 368.497 676.48 370.119 676.48 372.664C676.48 375.212 677.916 377.296 679.673 377.296C681.43 377.296 682.943 378.649 683.037 380.301C683.129 381.954 684.389 380.937 685.835 378.041C687.577 374.554 692.505 371.775 700.451 369.807C707.044 368.172 711.954 366.074 711.36 365.144C708.897 361.293 700.819 361.493 690.688 365.656ZM721.384 365.677C714.55 368.273 704.492 371.725 699.035 373.347C693.429 375.013 688.763 378.039 688.313 380.293C687.6 383.875 692 384.365 730.54 385.004C754.204 385.399 775.524 386.646 777.914 387.776C780.784 389.129 782.262 388.874 782.262 387.026C782.262 385.485 781.323 384.786 780.175 385.471C779.027 386.158 770.025 381.865 760.17 375.933C750.315 369.999 741.163 365.797 739.831 366.593C738.502 367.389 737.719 366.742 738.094 365.156C739.198 360.502 734.62 360.644 721.384 365.677ZM226.002 382.267C224.528 389.449 221.532 405.057 219.342 416.955C215.647 437.044 214.137 440.354 198.147 463.356C188.677 476.977 180.961 488.875 180.999 489.795C181.22 495.081 197.789 520.41 201.461 521.078C204.985 521.719 204.093 518.989 196.904 507.125C191.989 499.013 188.53 490.956 189.219 489.223C189.907 487.49 202.239 478.092 216.624 468.339C231.011 458.585 242.842 449.235 242.916 447.56C242.991 445.884 236.063 449.749 227.52 456.145C218.98 462.541 208.076 470.384 203.293 473.571L194.596 479.369L199.369 472.199C201.996 468.254 207.793 459.618 212.251 453.009C218.845 443.228 221.527 434.991 226.648 408.785C230.509 389.038 232.119 375.154 230.812 372.895C229.284 370.256 227.923 372.907 226.002 382.267ZM633.793 374.186C625.66 375.7 626.671 382.11 635.035 382.067C643.521 382.021 649.273 378.705 647.01 375.162C645.275 372.446 643.74 372.333 633.793 374.186ZM546.202 413.037C546.202 416.229 547.295 416.979 610.808 457.436L664.232 491.466L669.57 516.703C672.504 530.584 675.021 545.457 675.161 549.752L675.414 557.564H620.601C587.386 557.564 566.351 556.682 567.219 555.326C568.004 554.093 581.489 545.875 597.183 537.059C612.875 528.243 625.717 520.547 625.717 519.953C625.717 519.359 610.902 526.452 592.793 535.711C544.202 560.561 544.694 561.011 621.369 561.811C663.608 562.253 682.869 561.655 682.869 559.898C682.869 554.742 672.601 500.864 670.285 493.869C668.327 487.952 657.364 479.981 609.111 449.403C544.823 408.66 546.202 409.458 546.202 413.037ZM725.111 469.11C697.094 478.486 673.704 486.541 673.135 487.009C672.566 487.478 672.927 488.658 673.935 489.634C674.944 490.61 699.765 483.433 729.094 473.686C758.425 463.94 782.819 456.383 783.304 456.89C787.866 461.673 821.878 532.218 820.333 533.694C819.21 534.768 789.779 540.179 754.929 545.724C682.282 557.278 683.748 556.973 686.805 559.929C689.113 562.162 932.33 555.119 934.556 552.757C936.773 550.406 787.18 451.807 781.594 451.934C778.545 452.004 753.128 459.734 725.111 469.11ZM856.07 504.685C904.224 537.165 917.398 547.125 913.897 548.406C907.027 550.92 836.949 551.348 834.529 548.894C831.172 545.491 789.707 461 791.812 461.854C792.855 462.277 821.769 481.551 856.07 504.685ZM311.287 478.398C309.438 481.291 312.315 482.488 351.777 495.278C386.083 506.394 404.59 510.464 394.221 504.611C385.435 499.65 312.447 476.583 311.287 478.398ZM380.681 514.461L328.221 531.072L322.908 545.166C319.986 552.918 317.596 559.96 317.596 560.816C317.596 561.672 368.54 562.371 430.803 562.371C505.642 562.371 543.491 561.556 542.475 559.968C541.491 558.427 502.829 557.564 434.652 557.564C376.193 557.564 327.709 556.932 326.909 556.158C325.085 554.394 329.729 540.527 333.452 536.622C334.982 535.016 364.942 529.103 400.031 523.481C435.122 517.859 463.233 512.324 462.502 511.182C461.772 510.038 458.221 509.834 454.613 510.728C443.545 513.466 368.585 525.878 367.745 525.108C366.908 524.344 410.686 510.651 429.287 505.861C440.385 503.003 446.221 497.311 437.696 497.662C435.191 497.765 409.535 505.325 380.681 514.461ZM326.643 507.567C305.678 514.526 304.416 515.35 300.197 524.803C290.789 545.873 290.692 545.546 306.247 545.546C313.856 545.546 320.081 544.464 320.081 543.143C320.081 541.821 316.353 540.739 311.799 540.739C307.241 540.739 302.813 540.061 301.956 539.232C300.696 538.013 305.994 522.318 308.474 519.919C308.834 519.568 314.621 520.881 321.331 522.835C328.042 524.789 334.699 525.976 336.125 525.476C337.552 524.976 333.822 523.26 327.841 521.662C321.857 520.063 317.944 517.895 319.144 516.843C322.228 514.136 352.416 504.685 357.982 504.685C360.531 504.685 361.925 503.604 361.081 502.282C358.633 498.45 350.202 499.746 326.643 507.567ZM162.621 511.598C150.487 515.023 147.272 517.109 143.468 524.02C136.125 537.357 136.893 538.335 154.692 538.335C163.495 538.335 171.387 537.254 172.232 535.932C173.179 534.451 168.994 533.528 161.344 533.528C154.51 533.528 148.301 532.56 147.543 531.375C144.62 526.801 155.412 519.071 169.613 515.562C185.809 511.562 193.413 506.959 183.29 507.284C179.943 507.392 170.639 509.334 162.621 511.598ZM205.778 523.832C202.361 524.887 194.812 527.005 189.005 528.534C180.392 530.805 177.493 533.117 173.301 541.068C170.473 546.431 168.644 551.291 169.24 551.865C171.536 554.086 230.631 553.711 231.24 551.471C231.608 550.118 220.754 548.868 205.156 548.469C185.136 547.957 178.444 546.998 178.444 544.635C178.444 539.117 186.704 534.192 202.05 530.56C210.25 528.62 216.763 526.087 216.525 524.933C215.903 521.938 212.899 521.631 205.778 523.832ZM826.493 541.22C828.133 542.806 829.475 546.051 829.475 548.43C829.475 552.204 827.141 552.757 811.231 552.757C801.197 552.757 777.437 553.283 758.428 553.925L723.869 555.093L768.596 546.967C820.248 537.583 822.502 537.36 826.493 541.22ZM-89 612.846C-89 626.727 -88.59 632.404 -88.0881 625.465C-87.5861 618.526 -87.5861 607.166 -88.0881 600.227C-88.59 593.288 -89 598.965 -89 612.846ZM310.802 614.048C310.847 620.658 311.351 623.09 311.92 619.456C312.489 615.822 313.926 612.846 315.111 612.846C316.296 612.846 317.732 615.822 318.301 619.456C319.263 625.609 319.363 625.525 319.708 618.254C319.961 612.923 318.955 610.443 316.535 610.443C314.587 610.443 312.479 608.548 311.853 606.236C311.23 603.924 310.755 607.438 310.802 614.048ZM434.953 614.048C434.856 620.658 435.392 624.443 436.145 622.46C436.901 620.477 439.329 616.711 441.54 614.089C445.28 609.664 445.267 609.546 441.396 612.437C437.748 615.161 437.097 614.707 436.178 608.789C435.589 605.001 435.05 607.313 434.953 614.048ZM339.87 608.039C339.08 613.935 340.253 621.122 342.35 623.244C343.428 624.335 343.761 622.444 343.088 619.038C342.201 614.543 342.919 612.846 345.709 612.846C347.824 612.846 349.911 615.194 350.346 618.067C350.783 620.937 352.568 623.559 354.309 623.895C356.051 624.229 356.332 623.953 354.931 623.282C351.79 621.775 351.556 613.543 354.623 612.445C355.855 612.005 355.296 610.25 353.38 608.546C351.37 606.755 349.899 606.501 349.899 607.945C349.899 611.474 343.115 611.06 341.604 607.438C340.727 605.333 340.208 605.513 339.87 608.039ZM396.51 608.748C394.852 613.324 398.177 623.246 401.591 623.905C403.296 624.234 403.544 623.953 402.143 623.282C399.002 621.775 398.768 613.543 401.835 612.445C403.067 612.005 402.61 610.342 400.816 608.748C398.274 606.486 397.327 606.486 396.51 608.748ZM533.899 606.837C533.529 608.159 533.452 611.822 533.725 614.976C533.999 618.129 532.724 621.629 530.893 622.749C528.641 624.131 529.978 624.789 535.02 624.789C539.222 624.789 541.207 624.011 539.57 623.004C537.974 622.021 536.195 617.439 535.619 612.824C535.045 608.21 534.27 605.515 533.899 606.837ZM546.291 611.483C542.591 618.17 544.308 624.864 549.728 624.864C551.753 624.864 554.417 623.124 555.647 620.997C557.704 617.439 558.01 617.439 559.421 620.997C561.563 626.4 567.914 625.825 569.808 620.057C573.535 608.7 564.128 600.499 558.676 610.354C557.115 613.171 554.556 614.509 552.312 613.678C549.42 612.603 549.213 611.522 551.413 608.96C552.98 607.13 553.199 605.635 551.895 605.635C550.593 605.635 548.07 608.267 546.291 611.483ZM578.627 606.837C578.256 608.159 578.179 611.822 578.453 614.976C578.726 618.129 577.451 621.629 575.62 622.749C573.369 624.131 574.706 624.789 579.747 624.789C583.949 624.789 585.935 624.011 584.297 623.004C582.702 622.021 580.923 617.439 580.346 612.824C579.772 608.21 578.997 605.515 578.627 606.837ZM605.011 607.239C602.036 610.116 603.269 615.25 606.934 615.25C613.203 615.25 613.827 620.014 607.861 622.328C604.439 623.655 603.671 624.621 605.962 624.713C608.082 624.794 611.069 623.65 612.602 622.167C616.068 618.814 613.954 612.846 609.3 612.846C604.342 612.846 605.021 608.599 610.187 607.291C613.67 606.412 613.752 606.138 610.602 605.914C608.437 605.76 605.92 606.356 605.011 607.239ZM619.522 608.013C618.675 609.339 619.597 609.796 621.609 609.049C627.454 606.88 628.495 611.844 623.173 616.502C616.434 622.403 617.018 624.895 625.096 624.696C630.023 624.573 630.769 624.071 627.765 622.893C624.288 621.528 624.122 620.574 626.766 617.093C629.683 613.252 630.145 613.392 632.739 618.896C636.124 626.083 642.179 626.686 644.353 620.057C647.964 609.053 638.869 600.523 633.462 609.842C631.136 613.848 630.94 613.848 629.345 609.842C627.521 605.258 621.945 604.22 619.522 608.013ZM649.34 608.013C648.438 609.426 649.559 609.743 652.111 608.796C655.371 607.585 656.022 608.15 654.832 611.149C653.972 613.32 654.355 615.745 655.684 616.54C659.305 618.706 655.587 622.994 651.428 621.451C649.415 620.703 648.493 621.16 649.34 622.487C651.517 625.895 657.27 625.417 658.741 621.708C662.311 612.707 654.039 600.655 649.34 608.013ZM664.647 607.239C661.673 610.116 662.905 615.25 666.57 615.25C672.84 615.25 673.463 620.014 667.497 622.328C664.076 623.655 663.308 624.621 665.599 624.713C667.718 624.794 670.705 623.65 672.238 622.167C675.705 618.814 673.59 612.846 668.936 612.846C663.979 612.846 664.657 608.599 669.823 607.291C673.307 606.412 673.389 606.138 670.238 605.914C668.074 605.76 665.557 606.356 664.647 607.239ZM567.323 615.25C567.323 618.333 566.063 621.263 564.523 621.761C560.997 622.898 558.303 616.454 560.254 611.543C562.401 606.131 567.323 608.712 567.323 615.25ZM641.869 615.25C641.869 618.333 640.609 621.263 639.068 621.761C635.542 622.898 632.848 616.454 634.799 611.543C636.946 606.131 641.869 608.712 641.869 615.25ZM297.754 614.649C297.777 617.05 298.589 617.824 299.648 616.451C300.666 615.13 302.515 613.238 303.75 612.245C304.988 611.253 304.135 610.443 301.859 610.443C299.556 610.443 297.734 612.31 297.754 614.649ZM325.423 617.052C325.12 623.381 325.995 624.864 330.02 624.864C334.045 624.864 334.92 623.381 334.617 617.052C334.272 609.782 334.172 609.697 333.211 615.851C332.642 619.485 331.205 622.46 330.02 622.46C328.835 622.46 327.399 619.485 326.829 615.851C325.868 609.697 325.768 609.782 325.423 617.052ZM361.548 611.995C358.305 615.129 359.853 617.653 365.014 617.653C367.906 617.653 369.758 616.394 369.209 614.8C367.998 611.286 363.849 609.767 361.548 611.995ZM375.085 618.254C375.371 624.869 375.602 625.145 376.579 620.057C377.215 616.752 379.019 613.252 380.589 612.281C382.423 611.147 381.889 610.503 379.096 610.479C375.771 610.452 374.827 612.279 375.085 618.254ZM384.724 614.649C384.746 617.05 385.559 617.824 386.617 616.451C387.636 615.13 389.485 613.238 390.72 612.245C391.957 611.253 391.105 610.443 388.829 610.443C386.525 610.443 384.704 612.31 384.724 614.649ZM407.95 614.048C405.974 619.028 408.656 624.864 412.92 624.864C417.184 624.864 419.865 619.028 417.889 614.048C417.102 612.065 414.865 610.443 412.92 610.443C410.971 610.443 408.735 612.065 407.95 614.048ZM422.859 614.048C420.933 618.901 423.542 624.91 427.473 624.674C429.966 624.525 429.983 624.222 427.55 623.273C425.843 622.605 424.444 620.076 424.444 617.653C424.444 615.23 425.843 612.702 427.55 612.034C429.983 611.084 429.966 610.781 427.473 610.632C425.721 610.529 423.644 612.065 422.859 614.048ZM457.647 614.048C455.721 618.901 458.33 624.91 462.261 624.674C464.753 624.525 464.771 624.222 462.338 623.273C460.631 622.605 459.232 620.076 459.232 617.653C459.232 615.23 460.631 612.702 462.338 612.034C464.771 611.084 464.753 610.781 462.261 610.632C460.509 610.529 458.432 612.065 457.647 614.048ZM470.071 614.048C468.096 619.028 470.777 624.864 475.041 624.864C479.886 624.864 482.314 617.781 478.85 613.743C475.158 609.44 471.853 609.556 470.071 614.048ZM484.453 618.495C484.811 625.761 484.866 625.799 485.86 619.456C486.429 615.822 487.865 612.846 489.05 612.846C490.236 612.846 491.672 615.822 492.241 619.456L493.275 626.066L493.647 619.456C493.854 615.822 495.064 612.846 496.341 612.846C497.616 612.846 499.126 615.822 499.695 619.456C500.689 625.799 500.744 625.761 501.102 618.495C501.452 611.375 500.955 610.923 492.778 610.923C484.6 610.923 484.103 611.375 484.453 618.495ZM588.444 612.921C588.444 614.202 590.054 615.25 592.025 615.25C598.294 615.25 598.918 620.014 592.952 622.328C589.167 623.797 588.583 624.612 591.247 624.713C596.329 624.902 601.149 619.514 598.863 616.197C596.416 612.644 588.444 610.14 588.444 612.921ZM415.747 617.653C415.747 619.415 414.351 621.309 412.641 621.86C410.792 622.456 409.535 620.751 409.535 617.653C409.535 614.555 410.792 612.851 412.641 613.447C414.351 613.997 415.747 615.891 415.747 617.653ZM477.869 617.653C477.869 619.415 476.472 621.309 474.762 621.86C472.914 622.456 471.656 620.751 471.656 617.653C471.656 614.555 472.914 612.851 474.762 613.447C476.472 613.997 477.869 615.891 477.869 617.653ZM551.544 618.855C551.544 620.11 550.342 621.525 548.873 621.999C547.405 622.472 546.202 621.059 546.202 618.855C546.202 616.651 547.405 615.238 548.873 615.711C550.342 616.185 551.544 617.6 551.544 618.855ZM300.726 621.35C298.077 624.253 298.187 624.864 301.347 624.864C303.45 624.864 305.172 623.242 305.172 621.259C305.172 616.874 304.799 616.884 300.726 621.35ZM387.696 621.35C385.047 624.253 385.156 624.864 388.317 624.864C390.419 624.864 392.141 623.242 392.141 621.259C392.141 616.874 391.768 616.884 387.696 621.35ZM439.353 619.773C439.353 621.095 440.472 622.845 441.838 623.662C443.205 624.479 444.323 624.066 444.323 622.744C444.323 621.422 443.205 619.672 441.838 618.855C440.472 618.038 439.353 618.451 439.353 619.773ZM361.747 622.864C363.193 624.263 365.839 624.931 367.633 624.354C369.494 623.754 368.366 622.665 365.007 621.814C360.874 620.768 359.903 621.081 361.747 622.864Z" fill="black"/>
</svg>
