<svg width="90" height="55" viewBox="0 0 90 55" fill="none" xmlns="http://www.w3.org/2000/svg">
<mask id="path-1-inside-1" fill="white">
<path fill-rule="evenodd" clip-rule="evenodd" d="M2.40087 0.083933C2.26879 0.13165 1.69464 0.288503 1.12506 0.432835C0.48583 0.594412 0.11819 0.812683 0.164535 1.00284C0.356159 1.78876 7.69309 14.1477 7.76297 13.8019C7.80643 13.5858 7.00344 11.9511 5.97832 10.1688C1.46652 2.32476 1.72082 2.84562 2.03731 2.0942C2.19531 1.7186 2.50412 1.25182 2.72312 1.0567C3.08476 0.734965 3.38948 0.929849 6.00305 3.15413C8.83299 5.5629 9.24457 5.8492 9.24457 5.40959C9.24457 5.20833 5.25769 1.70986 3.62913 0.482206C2.93107 -0.0441 2.83838 -0.0741005 2.40087 0.083933ZM2.27312 0.963865C2.26471 1.29434 1.70665 2.08593 1.48237 2.08593C1.40241 2.08593 1.22063 1.87167 1.07799 1.6097C0.860192 1.2093 0.906777 1.09875 1.36975 0.915912C2.13168 0.6152 2.282 0.623231 2.27312 0.963865ZM0.00484884 2.54987C-0.0736737 2.67507 0.810965 4.96549 1.97103 7.63978C3.81403 11.888 4.17903 12.5591 4.86148 12.9553C5.84313 13.5251 5.89908 13.0942 4.95153 12.2608C4.28373 11.6733 1.55729 5.77054 0.824652 3.3261C0.527852 2.33538 0.28436 2.10483 0.00484884 2.54987ZM9.42467 5.76298L8.28405 6.34693V10.7766V15.2063L9.35503 15.7817C10.7363 16.5239 11.0287 16.2534 9.74692 15.4189L8.76431 14.7792V10.8876C8.76431 6.42749 8.51169 6.68166 11.2936 8.34302C12.2752 8.92909 13.2154 9.40674 13.3827 9.40414C13.5501 9.40177 12.9846 8.99452 12.1261 8.4994C10.7106 7.68277 10.5725 7.5349 10.6416 6.90938C10.6837 6.53024 10.8011 6.13622 10.9027 6.0337C11.1543 5.78046 14.0075 7.37993 14.8398 8.24073C15.2096 8.62341 15.615 8.93641 15.7403 8.93641C16.6166 8.93641 14.8867 7.3471 12.6739 6.11897C11.7203 5.58983 10.8558 5.1618 10.7528 5.16794C10.6496 5.17384 10.0519 5.44172 9.42467 5.76298ZM10.3107 6.66441C10.1306 7.37048 9.91429 7.43757 9.4799 6.92284C9.14732 6.52835 9.15068 6.52102 9.84297 6.15417C10.4462 5.8348 10.506 5.89999 10.3107 6.66441ZM18.5292 7.29088C17.0983 7.52497 15.8645 7.77868 15.7876 7.85403C15.4149 8.22089 16.1212 8.24664 17.9944 7.93506C19.1252 7.74702 20.0504 7.62608 20.0504 7.66671C20.0504 7.7071 19.7534 7.90695 19.3901 8.11081C18.758 8.46538 18.7554 8.47388 19.33 8.31231C19.6602 8.21947 20.1621 8.13585 20.4454 8.12663C20.9682 8.10939 21.9715 7.37521 21.9715 7.01001C21.9715 6.753 21.6602 6.77827 18.5292 7.29088ZM18.6096 8.76397C16.1663 9.14122 14.051 9.54445 13.9089 9.66044C13.5758 9.93186 10.828 16.2421 10.9783 16.39C11.0407 16.4514 11.4598 16.3555 11.9091 16.1767C12.3586 15.9978 14.038 15.3541 15.6414 14.7466L18.5561 13.6415L20.5441 11.348C21.6374 10.0866 22.6933 8.86791 22.8904 8.63971C23.0878 8.41152 23.2048 8.19183 23.1507 8.15144C23.0965 8.11128 21.053 8.38672 18.6096 8.76397ZM19.4501 10.3483C18.2614 11.1205 17.1268 11.7524 16.9287 11.7529C16.5056 11.7534 14.5978 10.2056 14.7894 10.0174C14.9414 9.86761 20.1246 8.98886 21.0109 8.9624C21.4621 8.94893 21.0746 9.29311 19.4501 10.3483ZM19.6756 11.4028C18.3467 12.8825 18.2939 12.9144 17.7444 12.5603L17.1797 12.1963L18.9153 11.057C19.8698 10.4303 20.7389 9.90942 20.8464 9.8995C20.954 9.88958 20.4272 10.5659 19.6756 11.4028ZM16.0775 11.6877C16.9508 12.4212 17.6323 13.1199 17.5915 13.2404C17.5072 13.4889 12.1124 15.6161 11.9564 15.4623C11.8728 15.3801 13.6084 11.1267 13.9684 10.5309C14.1764 10.187 14.5051 10.3672 16.0775 11.6877ZM6.11232 12.4798C6.09839 12.6747 5.95119 14.3223 5.78502 16.1412C5.61861 17.9602 5.52255 19.5547 5.57154 19.6846C5.64838 19.8892 15.1969 26.8974 16.1435 27.4443C16.4293 27.6092 16.4446 27.56 16.2309 27.1672C16.088 26.9043 13.8058 25.1217 11.1596 23.206C8.51337 21.2902 6.43265 19.6475 6.53566 19.5556C6.63892 19.4635 7.31752 19.2076 8.04392 18.9865C8.77031 18.7657 9.51519 18.5375 9.69913 18.4796C9.88307 18.4217 9.97312 18.3147 9.89916 18.2417C9.82496 18.169 9.00156 18.3511 8.06913 18.6464C7.13671 18.9419 6.30466 19.1153 6.21989 19.0319C6.13489 18.9485 6.18724 17.538 6.33564 15.8975C6.51237 13.9451 6.52486 12.7784 6.37166 12.5202C6.17859 12.1949 6.13297 12.1878 6.11232 12.4798ZM19.5702 12.9265C19.5702 13.0422 20.8397 13.5926 22.3917 14.1496C23.9436 14.7066 27.1571 15.8615 29.5329 16.7162L33.8528 18.2698L34.86 19.922L35.8671 21.5744L36.2465 27.7162C36.4554 31.0942 36.6854 34.3097 36.7577 34.8619C36.8569 35.6205 36.8079 35.8659 36.5577 35.8659C36.1917 35.8659 19.8535 28.6346 19.4177 28.2798C19.1523 28.0637 18.6603 18.7291 18.9019 18.4917C18.9617 18.4328 20.7672 18.765 22.914 19.2299C25.0607 19.6947 26.8547 20.0382 26.9004 19.9933C26.946 19.9484 23.8836 19.18 20.0951 18.2859C16.3065 17.3918 13.0857 16.5686 12.9375 16.4561C12.7853 16.3408 12.4198 16.346 12.0971 16.4682C11.3733 16.7422 11.4691 16.7764 15.1174 17.5465C16.6968 17.8798 18.0977 18.2597 18.231 18.3908C18.4819 18.6376 18.9151 26.1243 18.7969 28.1733L18.7297 29.3393L14.1963 22.7914C11.703 19.1899 9.44772 16.1301 9.18478 15.9917C8.80273 15.7904 8.74606 15.8041 8.90286 16.0586C9.60188 17.1922 18.4939 29.9211 18.8217 30.257C19.1948 30.6397 36.2875 36.5746 37.0166 36.5746C37.425 36.5746 37.4313 36.8665 36.8453 28.4518L36.3507 21.3504L35.363 19.6425C34.4729 18.1035 34.2548 17.8876 33.156 17.4596C30.886 16.5749 20.0139 12.716 19.7913 12.716C19.6696 12.716 19.5702 12.8107 19.5702 12.9265ZM36.8595 23.1668C36.8595 23.3734 38.0482 24.517 39.5009 25.7083C40.9537 26.8996 42.1424 27.9555 42.1424 28.0547C42.1424 28.1539 41.1081 29.6433 39.8441 31.3642C38.5798 33.0853 37.5943 34.5414 37.6536 34.6C37.7132 34.6583 38.8127 33.267 40.0969 31.5076C41.531 29.5434 42.5383 28.3698 42.7074 28.4667C42.8589 28.5531 44.2003 29.6291 45.6884 30.8577C47.6579 32.4834 48.3286 33.1687 48.1538 33.3759C48.0215 33.5325 44.2911 36.0343 39.8638 38.9351C35.4363 41.836 31.8581 44.2532 31.9124 44.3066C31.9666 44.3598 35.7518 41.9486 40.3241 38.9481C47.62 34.1604 48.6977 33.5249 49.1323 33.7536C49.816 34.1136 50.0201 33.82 49.4529 33.2927C49.1962 33.0541 46.5007 30.8079 43.4631 28.3011C40.4254 25.7943 37.6971 23.5291 37.3998 23.2671C36.9488 22.8698 36.8595 22.8533 36.8595 23.1668ZM26.1103 31.6694C29.3773 33.1148 32.0238 34.3236 31.9914 34.3557C31.9325 34.4133 31.0097 34.1093 23.3522 31.5083C19.355 30.1507 19.33 30.1377 19.33 29.4354C19.33 28.5843 18.5734 28.3349 26.1103 31.6694ZM20.2905 31.5865C20.2905 31.9006 23.6447 39.2569 23.9059 39.5155C24.4787 40.0825 24.0169 38.6743 22.6112 35.5673C21.7743 33.7177 21.0213 32.0185 20.9377 31.791C20.7821 31.367 20.2905 31.2116 20.2905 31.5865ZM25.455 33.7989C25.3849 34.0914 24.8955 36.609 24.3677 39.3944L23.4082 44.458L21.8495 46.7178C20.992 47.9608 20.2867 49.1367 20.2819 49.3313C20.2677 49.9063 22.5475 54.0631 22.841 53.9975C22.9889 53.9641 24.6684 52.1466 26.5731 49.9585L30.036 45.9798L34.0481 46.0117C36.8494 46.0339 38.0602 45.9642 38.0602 45.7809C38.0602 45.5964 36.9253 45.5409 34.233 45.5938L30.406 45.6692L30.9826 44.9605C32.1948 43.4709 36.6655 37.4401 36.7853 37.133C37.1796 36.1217 36.1737 37.2067 33.9626 40.177C31.325 43.7206 24.2236 52.1089 24.9241 50.8536C25.0005 50.7168 27.1688 47.3695 29.7428 43.4149C32.317 39.4603 34.3768 36.1796 34.3204 36.1241C34.178 35.984 34.5778 35.3892 28.6975 44.488C25.7588 49.0353 23.2381 52.8981 23.0962 53.0719C22.8972 53.3157 22.5984 52.9189 21.7887 51.3336L20.7393 49.2791L22.3259 46.9939L23.9124 44.7084L24.9832 39.0681C26.216 32.5725 26.1161 33.2674 25.8181 33.2674C25.6887 33.2674 25.5251 33.5065 25.455 33.7989ZM45.2641 36.9284C42.0283 38.8071 39.251 40.5327 39.092 40.7626C38.9266 41.0023 38.7729 42.2314 38.7318 43.6407L38.6605 46.1005L45.8149 50.5502C49.7499 52.9975 53.0594 55 53.1696 55C53.2796 55 53.3262 54.5483 53.2731 53.996C53.1115 52.3127 51.7473 34.359 51.7473 33.917C51.7476 33.6896 51.6126 33.5055 51.4474 33.5079C51.2824 33.5103 48.4998 35.0495 45.2641 36.9284ZM51.9879 44.214C52.4043 49.5198 52.6937 53.9117 52.6308 53.9736C52.5679 54.0357 49.9932 52.5218 46.9092 50.6093C43.8252 48.6971 40.8788 46.8704 40.3616 46.5503C39.2289 45.8489 39.0807 45.9496 43.4093 44.4807C45.2285 43.8635 46.6765 43.3183 46.6266 43.2694C46.5769 43.2202 44.9802 43.6596 43.0784 44.2454C41.1768 44.8313 39.4834 45.3115 39.3153 45.3127C39.0795 45.3144 39.0454 44.8684 39.1669 43.366C39.2536 42.2942 39.397 41.2816 39.4856 41.116C39.7156 40.6863 50.874 34.2305 51.069 34.4143C51.1578 34.4982 51.5713 38.908 51.9879 44.214ZM21.5246 37.2993C21.3822 38.0051 21.0926 39.5392 20.881 40.7085C20.524 42.6828 20.378 43.0081 18.8327 45.2688C17.9176 46.6074 17.172 47.7768 17.1756 47.8672C17.197 48.3867 18.7981 50.876 19.1531 50.9417C19.4936 51.0047 19.4073 50.7364 18.7127 49.5704C18.2377 48.7731 17.9034 47.9813 17.9699 47.811C18.0364 47.6407 19.2282 46.7171 20.6183 45.7585C22.0087 44.7999 23.1519 43.881 23.1591 43.7163C23.1663 43.5517 22.4969 43.9315 21.6713 44.5601C20.846 45.1887 19.7923 45.9595 19.33 46.2727L18.4896 46.8425L18.9509 46.1378C19.2047 45.7502 19.7649 44.9014 20.1957 44.2518C20.833 43.2906 21.0921 42.4811 21.587 39.9055C21.9602 37.9647 22.1158 36.6003 21.9895 36.3783C21.8418 36.1189 21.7102 36.3794 21.5246 37.2993ZM52.468 40.3234C52.468 40.6371 52.5736 40.7108 58.7113 44.6869L63.8741 48.0314L64.3899 50.5117C64.6735 51.8759 64.9168 53.3377 64.9302 53.7598L64.9547 54.5275H59.6577C56.4479 54.5275 54.4152 54.4408 54.499 54.3076C54.5749 54.1864 55.878 53.3788 57.3947 52.5123C58.9111 51.6458 60.1521 50.8895 60.1521 50.8311C60.1521 50.7728 58.7205 51.4699 56.9704 52.3798C52.2747 54.8221 52.3222 54.8663 59.7319 54.9449C63.8139 54.9884 65.6751 54.9296 65.6751 54.7569C65.6751 54.2502 64.6829 48.955 64.4591 48.2676C64.2699 47.686 63.2104 46.9027 58.5473 43.8975C52.3347 39.8933 52.468 39.9717 52.468 40.3234ZM69.7573 45.8343C67.0499 46.7558 64.7895 47.5474 64.7345 47.5934C64.6795 47.6395 64.7144 47.7555 64.8118 47.8514C64.9093 47.9473 67.308 47.2419 70.1422 46.284C72.9767 45.3262 75.3341 44.5835 75.3809 44.6333C75.8218 45.1034 79.1087 52.0366 78.9593 52.1816C78.8508 52.2872 76.0067 52.8189 72.6389 53.3639C65.6184 54.4994 65.7601 54.4694 66.0555 54.76C66.2786 54.9794 89.7825 54.2873 89.9976 54.0551C90.2118 53.8241 75.7555 44.1337 75.2157 44.1462C74.9211 44.1531 72.4648 44.9128 69.7573 45.8343ZM82.4129 49.3306C87.0664 52.5227 88.3395 53.5016 88.0012 53.6275C87.3372 53.8746 80.5651 53.9167 80.3312 53.6755C80.0068 53.341 75.9997 45.0373 76.2031 45.1211C76.304 45.1627 79.0981 47.057 82.4129 49.3306ZM29.7663 46.747C29.5877 47.0315 29.8657 47.1491 33.6792 48.406C36.9945 49.4986 38.783 49.8985 37.7809 49.3233C36.9318 48.8357 29.8785 46.5687 29.7663 46.747ZM36.4724 50.2913L31.4028 51.9239L30.8894 53.3091C30.607 54.0709 30.376 54.7631 30.376 54.8471C30.376 54.9312 35.2992 55 41.3161 55C48.5483 55 52.206 54.9199 52.1078 54.7638C52.0127 54.6123 48.2765 54.5275 41.688 54.5275C36.0388 54.5275 31.3533 54.4654 31.276 54.3893C31.0998 54.216 31.5486 52.8532 31.9083 52.4693C32.0562 52.3115 34.9514 51.7304 38.3423 51.1779C41.7334 50.6254 44.45 50.0813 44.3794 49.9691C44.3088 49.8567 43.9657 49.8366 43.617 49.9245C42.5475 50.1935 35.3035 51.4134 35.2223 51.3378C35.1414 51.2627 39.372 49.9169 41.1696 49.4461C42.242 49.1653 42.8061 48.6059 41.9822 48.6404C41.7402 48.6505 39.2608 49.3935 36.4724 50.2913ZM31.2503 49.6138C29.2243 50.2977 29.1024 50.3787 28.6946 51.3078C27.7855 53.3785 27.7761 53.3464 29.2793 53.3464C30.0146 53.3464 30.6161 53.2401 30.6161 53.1102C30.6161 52.9803 30.2559 52.874 29.8158 52.874C29.3754 52.874 28.9475 52.8074 28.8646 52.7259C28.7429 52.6061 29.2548 51.0636 29.4945 50.8278C29.5293 50.7933 30.0886 50.9223 30.7369 51.1143C31.3855 51.3064 32.0288 51.4231 32.1667 51.374C32.3045 51.3248 31.9441 51.1562 31.3661 50.9991C30.7878 50.842 30.4096 50.6289 30.5256 50.5254C30.8236 50.2595 33.741 49.3306 34.2788 49.3306C34.5252 49.3306 34.6599 49.2243 34.5783 49.0944C34.3418 48.7179 33.527 48.8452 31.2503 49.6138ZM15.3996 50.01C14.227 50.3466 13.9163 50.5517 13.5487 51.2308C12.8391 52.5416 12.9133 52.6378 14.6333 52.6378C15.4841 52.6378 16.2468 52.5315 16.3284 52.4015C16.4199 52.256 16.0155 52.1653 15.2762 52.1653C14.6158 52.1653 14.0157 52.0701 13.9425 51.9537C13.6601 51.5041 14.703 50.7444 16.0753 50.3995C17.6405 50.0065 18.3753 49.5541 17.397 49.586C17.0735 49.5966 16.1745 49.7875 15.3996 50.01ZM19.5702 51.2124C19.24 51.3161 18.5105 51.5242 17.9493 51.6744C17.117 51.8977 16.8368 52.1249 16.4317 52.9063C16.1584 53.4334 15.9817 53.911 16.0393 53.9675C16.2612 54.1857 21.9719 54.1489 22.0308 53.9287C22.0663 53.7957 21.0174 53.6729 19.5101 53.6337C17.5754 53.5834 16.9287 53.4891 16.9287 53.2569C16.9287 52.7145 17.7269 52.2305 19.21 51.8736C20.0024 51.6829 20.6318 51.434 20.6087 51.3206C20.5487 51.0262 20.2584 50.996 19.5702 51.2124ZM79.5546 52.9212C79.7131 53.0771 79.8428 53.396 79.8428 53.6299C79.8428 54.0008 79.6173 54.0551 78.0797 54.0551C77.1101 54.0551 74.814 54.1068 72.977 54.1699L69.6373 54.2847L73.9596 53.486C78.9512 52.5638 79.169 52.5418 79.5546 52.9212Z"/>
</mask>
<path fill-rule="evenodd" clip-rule="evenodd" d="M2.40087 0.083933C2.26879 0.13165 1.69464 0.288503 1.12506 0.432835C0.48583 0.594412 0.11819 0.812683 0.164535 1.00284C0.356159 1.78876 7.69309 14.1477 7.76297 13.8019C7.80643 13.5858 7.00344 11.9511 5.97832 10.1688C1.46652 2.32476 1.72082 2.84562 2.03731 2.0942C2.19531 1.7186 2.50412 1.25182 2.72312 1.0567C3.08476 0.734965 3.38948 0.929849 6.00305 3.15413C8.83299 5.5629 9.24457 5.8492 9.24457 5.40959C9.24457 5.20833 5.25769 1.70986 3.62913 0.482206C2.93107 -0.0441 2.83838 -0.0741005 2.40087 0.083933ZM2.27312 0.963865C2.26471 1.29434 1.70665 2.08593 1.48237 2.08593C1.40241 2.08593 1.22063 1.87167 1.07799 1.6097C0.860192 1.2093 0.906777 1.09875 1.36975 0.915912C2.13168 0.6152 2.282 0.623231 2.27312 0.963865ZM0.00484884 2.54987C-0.0736737 2.67507 0.810965 4.96549 1.97103 7.63978C3.81403 11.888 4.17903 12.5591 4.86148 12.9553C5.84313 13.5251 5.89908 13.0942 4.95153 12.2608C4.28373 11.6733 1.55729 5.77054 0.824652 3.3261C0.527852 2.33538 0.28436 2.10483 0.00484884 2.54987ZM9.42467 5.76298L8.28405 6.34693V10.7766V15.2063L9.35503 15.7817C10.7363 16.5239 11.0287 16.2534 9.74692 15.4189L8.76431 14.7792V10.8876C8.76431 6.42749 8.51169 6.68166 11.2936 8.34302C12.2752 8.92909 13.2154 9.40674 13.3827 9.40414C13.5501 9.40177 12.9846 8.99452 12.1261 8.4994C10.7106 7.68277 10.5725 7.5349 10.6416 6.90938C10.6837 6.53024 10.8011 6.13622 10.9027 6.0337C11.1543 5.78046 14.0075 7.37993 14.8398 8.24073C15.2096 8.62341 15.615 8.93641 15.7403 8.93641C16.6166 8.93641 14.8867 7.3471 12.6739 6.11897C11.7203 5.58983 10.8558 5.1618 10.7528 5.16794C10.6496 5.17384 10.0519 5.44172 9.42467 5.76298ZM10.3107 6.66441C10.1306 7.37048 9.91429 7.43757 9.4799 6.92284C9.14732 6.52835 9.15068 6.52102 9.84297 6.15417C10.4462 5.8348 10.506 5.89999 10.3107 6.66441ZM18.5292 7.29088C17.0983 7.52497 15.8645 7.77868 15.7876 7.85403C15.4149 8.22089 16.1212 8.24664 17.9944 7.93506C19.1252 7.74702 20.0504 7.62608 20.0504 7.66671C20.0504 7.7071 19.7534 7.90695 19.3901 8.11081C18.758 8.46538 18.7554 8.47388 19.33 8.31231C19.6602 8.21947 20.1621 8.13585 20.4454 8.12663C20.9682 8.10939 21.9715 7.37521 21.9715 7.01001C21.9715 6.753 21.6602 6.77827 18.5292 7.29088ZM18.6096 8.76397C16.1663 9.14122 14.051 9.54445 13.9089 9.66044C13.5758 9.93186 10.828 16.2421 10.9783 16.39C11.0407 16.4514 11.4598 16.3555 11.9091 16.1767C12.3586 15.9978 14.038 15.3541 15.6414 14.7466L18.5561 13.6415L20.5441 11.348C21.6374 10.0866 22.6933 8.86791 22.8904 8.63971C23.0878 8.41152 23.2048 8.19183 23.1507 8.15144C23.0965 8.11128 21.053 8.38672 18.6096 8.76397ZM19.4501 10.3483C18.2614 11.1205 17.1268 11.7524 16.9287 11.7529C16.5056 11.7534 14.5978 10.2056 14.7894 10.0174C14.9414 9.86761 20.1246 8.98886 21.0109 8.9624C21.4621 8.94893 21.0746 9.29311 19.4501 10.3483ZM19.6756 11.4028C18.3467 12.8825 18.2939 12.9144 17.7444 12.5603L17.1797 12.1963L18.9153 11.057C19.8698 10.4303 20.7389 9.90942 20.8464 9.8995C20.954 9.88958 20.4272 10.5659 19.6756 11.4028ZM16.0775 11.6877C16.9508 12.4212 17.6323 13.1199 17.5915 13.2404C17.5072 13.4889 12.1124 15.6161 11.9564 15.4623C11.8728 15.3801 13.6084 11.1267 13.9684 10.5309C14.1764 10.187 14.5051 10.3672 16.0775 11.6877ZM6.11232 12.4798C6.09839 12.6747 5.95119 14.3223 5.78502 16.1412C5.61861 17.9602 5.52255 19.5547 5.57154 19.6846C5.64838 19.8892 15.1969 26.8974 16.1435 27.4443C16.4293 27.6092 16.4446 27.56 16.2309 27.1672C16.088 26.9043 13.8058 25.1217 11.1596 23.206C8.51337 21.2902 6.43265 19.6475 6.53566 19.5556C6.63892 19.4635 7.31752 19.2076 8.04392 18.9865C8.77031 18.7657 9.51519 18.5375 9.69913 18.4796C9.88307 18.4217 9.97312 18.3147 9.89916 18.2417C9.82496 18.169 9.00156 18.3511 8.06913 18.6464C7.13671 18.9419 6.30466 19.1153 6.21989 19.0319C6.13489 18.9485 6.18724 17.538 6.33564 15.8975C6.51237 13.9451 6.52486 12.7784 6.37166 12.5202C6.17859 12.1949 6.13297 12.1878 6.11232 12.4798ZM19.5702 12.9265C19.5702 13.0422 20.8397 13.5926 22.3917 14.1496C23.9436 14.7066 27.1571 15.8615 29.5329 16.7162L33.8528 18.2698L34.86 19.922L35.8671 21.5744L36.2465 27.7162C36.4554 31.0942 36.6854 34.3097 36.7577 34.8619C36.8569 35.6205 36.8079 35.8659 36.5577 35.8659C36.1917 35.8659 19.8535 28.6346 19.4177 28.2798C19.1523 28.0637 18.6603 18.7291 18.9019 18.4917C18.9617 18.4328 20.7672 18.765 22.914 19.2299C25.0607 19.6947 26.8547 20.0382 26.9004 19.9933C26.946 19.9484 23.8836 19.18 20.0951 18.2859C16.3065 17.3918 13.0857 16.5686 12.9375 16.4561C12.7853 16.3408 12.4198 16.346 12.0971 16.4682C11.3733 16.7422 11.4691 16.7764 15.1174 17.5465C16.6968 17.8798 18.0977 18.2597 18.231 18.3908C18.4819 18.6376 18.9151 26.1243 18.7969 28.1733L18.7297 29.3393L14.1963 22.7914C11.703 19.1899 9.44772 16.1301 9.18478 15.9917C8.80273 15.7904 8.74606 15.8041 8.90286 16.0586C9.60188 17.1922 18.4939 29.9211 18.8217 30.257C19.1948 30.6397 36.2875 36.5746 37.0166 36.5746C37.425 36.5746 37.4313 36.8665 36.8453 28.4518L36.3507 21.3504L35.363 19.6425C34.4729 18.1035 34.2548 17.8876 33.156 17.4596C30.886 16.5749 20.0139 12.716 19.7913 12.716C19.6696 12.716 19.5702 12.8107 19.5702 12.9265ZM36.8595 23.1668C36.8595 23.3734 38.0482 24.517 39.5009 25.7083C40.9537 26.8996 42.1424 27.9555 42.1424 28.0547C42.1424 28.1539 41.1081 29.6433 39.8441 31.3642C38.5798 33.0853 37.5943 34.5414 37.6536 34.6C37.7132 34.6583 38.8127 33.267 40.0969 31.5076C41.531 29.5434 42.5383 28.3698 42.7074 28.4667C42.8589 28.5531 44.2003 29.6291 45.6884 30.8577C47.6579 32.4834 48.3286 33.1687 48.1538 33.3759C48.0215 33.5325 44.2911 36.0343 39.8638 38.9351C35.4363 41.836 31.8581 44.2532 31.9124 44.3066C31.9666 44.3598 35.7518 41.9486 40.3241 38.9481C47.62 34.1604 48.6977 33.5249 49.1323 33.7536C49.816 34.1136 50.0201 33.82 49.4529 33.2927C49.1962 33.0541 46.5007 30.8079 43.4631 28.3011C40.4254 25.7943 37.6971 23.5291 37.3998 23.2671C36.9488 22.8698 36.8595 22.8533 36.8595 23.1668ZM26.1103 31.6694C29.3773 33.1148 32.0238 34.3236 31.9914 34.3557C31.9325 34.4133 31.0097 34.1093 23.3522 31.5083C19.355 30.1507 19.33 30.1377 19.33 29.4354C19.33 28.5843 18.5734 28.3349 26.1103 31.6694ZM20.2905 31.5865C20.2905 31.9006 23.6447 39.2569 23.9059 39.5155C24.4787 40.0825 24.0169 38.6743 22.6112 35.5673C21.7743 33.7177 21.0213 32.0185 20.9377 31.791C20.7821 31.367 20.2905 31.2116 20.2905 31.5865ZM25.455 33.7989C25.3849 34.0914 24.8955 36.609 24.3677 39.3944L23.4082 44.458L21.8495 46.7178C20.992 47.9608 20.2867 49.1367 20.2819 49.3313C20.2677 49.9063 22.5475 54.0631 22.841 53.9975C22.9889 53.9641 24.6684 52.1466 26.5731 49.9585L30.036 45.9798L34.0481 46.0117C36.8494 46.0339 38.0602 45.9642 38.0602 45.7809C38.0602 45.5964 36.9253 45.5409 34.233 45.5938L30.406 45.6692L30.9826 44.9605C32.1948 43.4709 36.6655 37.4401 36.7853 37.133C37.1796 36.1217 36.1737 37.2067 33.9626 40.177C31.325 43.7206 24.2236 52.1089 24.9241 50.8536C25.0005 50.7168 27.1688 47.3695 29.7428 43.4149C32.317 39.4603 34.3768 36.1796 34.3204 36.1241C34.178 35.984 34.5778 35.3892 28.6975 44.488C25.7588 49.0353 23.2381 52.8981 23.0962 53.0719C22.8972 53.3157 22.5984 52.9189 21.7887 51.3336L20.7393 49.2791L22.3259 46.9939L23.9124 44.7084L24.9832 39.0681C26.216 32.5725 26.1161 33.2674 25.8181 33.2674C25.6887 33.2674 25.5251 33.5065 25.455 33.7989ZM45.2641 36.9284C42.0283 38.8071 39.251 40.5327 39.092 40.7626C38.9266 41.0023 38.7729 42.2314 38.7318 43.6407L38.6605 46.1005L45.8149 50.5502C49.7499 52.9975 53.0594 55 53.1696 55C53.2796 55 53.3262 54.5483 53.2731 53.996C53.1115 52.3127 51.7473 34.359 51.7473 33.917C51.7476 33.6896 51.6126 33.5055 51.4474 33.5079C51.2824 33.5103 48.4998 35.0495 45.2641 36.9284ZM51.9879 44.214C52.4043 49.5198 52.6937 53.9117 52.6308 53.9736C52.5679 54.0357 49.9932 52.5218 46.9092 50.6093C43.8252 48.6971 40.8788 46.8704 40.3616 46.5503C39.2289 45.8489 39.0807 45.9496 43.4093 44.4807C45.2285 43.8635 46.6765 43.3183 46.6266 43.2694C46.5769 43.2202 44.9802 43.6596 43.0784 44.2454C41.1768 44.8313 39.4834 45.3115 39.3153 45.3127C39.0795 45.3144 39.0454 44.8684 39.1669 43.366C39.2536 42.2942 39.397 41.2816 39.4856 41.116C39.7156 40.6863 50.874 34.2305 51.069 34.4143C51.1578 34.4982 51.5713 38.908 51.9879 44.214ZM21.5246 37.2993C21.3822 38.0051 21.0926 39.5392 20.881 40.7085C20.524 42.6828 20.378 43.0081 18.8327 45.2688C17.9176 46.6074 17.172 47.7768 17.1756 47.8672C17.197 48.3867 18.7981 50.876 19.1531 50.9417C19.4936 51.0047 19.4073 50.7364 18.7127 49.5704C18.2377 48.7731 17.9034 47.9813 17.9699 47.811C18.0364 47.6407 19.2282 46.7171 20.6183 45.7585C22.0087 44.7999 23.1519 43.881 23.1591 43.7163C23.1663 43.5517 22.4969 43.9315 21.6713 44.5601C20.846 45.1887 19.7923 45.9595 19.33 46.2727L18.4896 46.8425L18.9509 46.1378C19.2047 45.7502 19.7649 44.9014 20.1957 44.2518C20.833 43.2906 21.0921 42.4811 21.587 39.9055C21.9602 37.9647 22.1158 36.6003 21.9895 36.3783C21.8418 36.1189 21.7102 36.3794 21.5246 37.2993ZM52.468 40.3234C52.468 40.6371 52.5736 40.7108 58.7113 44.6869L63.8741 48.0314L64.3899 50.5117C64.6735 51.8759 64.9168 53.3377 64.9302 53.7598L64.9547 54.5275H59.6577C56.4479 54.5275 54.4152 54.4408 54.499 54.3076C54.5749 54.1864 55.878 53.3788 57.3947 52.5123C58.9111 51.6458 60.1521 50.8895 60.1521 50.8311C60.1521 50.7728 58.7205 51.4699 56.9704 52.3798C52.2747 54.8221 52.3222 54.8663 59.7319 54.9449C63.8139 54.9884 65.6751 54.9296 65.6751 54.7569C65.6751 54.2502 64.6829 48.955 64.4591 48.2676C64.2699 47.686 63.2104 46.9027 58.5473 43.8975C52.3347 39.8933 52.468 39.9717 52.468 40.3234ZM69.7573 45.8343C67.0499 46.7558 64.7895 47.5474 64.7345 47.5934C64.6795 47.6395 64.7144 47.7555 64.8118 47.8514C64.9093 47.9473 67.308 47.2419 70.1422 46.284C72.9767 45.3262 75.3341 44.5835 75.3809 44.6333C75.8218 45.1034 79.1087 52.0366 78.9593 52.1816C78.8508 52.2872 76.0067 52.8189 72.6389 53.3639C65.6184 54.4994 65.7601 54.4694 66.0555 54.76C66.2786 54.9794 89.7825 54.2873 89.9976 54.0551C90.2118 53.8241 75.7555 44.1337 75.2157 44.1462C74.9211 44.1531 72.4648 44.9128 69.7573 45.8343ZM82.4129 49.3306C87.0664 52.5227 88.3395 53.5016 88.0012 53.6275C87.3372 53.8746 80.5651 53.9167 80.3312 53.6755C80.0068 53.341 75.9997 45.0373 76.2031 45.1211C76.304 45.1627 79.0981 47.057 82.4129 49.3306ZM29.7663 46.747C29.5877 47.0315 29.8657 47.1491 33.6792 48.406C36.9945 49.4986 38.783 49.8985 37.7809 49.3233C36.9318 48.8357 29.8785 46.5687 29.7663 46.747ZM36.4724 50.2913L31.4028 51.9239L30.8894 53.3091C30.607 54.0709 30.376 54.7631 30.376 54.8471C30.376 54.9312 35.2992 55 41.3161 55C48.5483 55 52.206 54.9199 52.1078 54.7638C52.0127 54.6123 48.2765 54.5275 41.688 54.5275C36.0388 54.5275 31.3533 54.4654 31.276 54.3893C31.0998 54.216 31.5486 52.8532 31.9083 52.4693C32.0562 52.3115 34.9514 51.7304 38.3423 51.1779C41.7334 50.6254 44.45 50.0813 44.3794 49.9691C44.3088 49.8567 43.9657 49.8366 43.617 49.9245C42.5475 50.1935 35.3035 51.4134 35.2223 51.3378C35.1414 51.2627 39.372 49.9169 41.1696 49.4461C42.242 49.1653 42.8061 48.6059 41.9822 48.6404C41.7402 48.6505 39.2608 49.3935 36.4724 50.2913ZM31.2503 49.6138C29.2243 50.2977 29.1024 50.3787 28.6946 51.3078C27.7855 53.3785 27.7761 53.3464 29.2793 53.3464C30.0146 53.3464 30.6161 53.2401 30.6161 53.1102C30.6161 52.9803 30.2559 52.874 29.8158 52.874C29.3754 52.874 28.9475 52.8074 28.8646 52.7259C28.7429 52.6061 29.2548 51.0636 29.4945 50.8278C29.5293 50.7933 30.0886 50.9223 30.7369 51.1143C31.3855 51.3064 32.0288 51.4231 32.1667 51.374C32.3045 51.3248 31.9441 51.1562 31.3661 50.9991C30.7878 50.842 30.4096 50.6289 30.5256 50.5254C30.8236 50.2595 33.741 49.3306 34.2788 49.3306C34.5252 49.3306 34.6599 49.2243 34.5783 49.0944C34.3418 48.7179 33.527 48.8452 31.2503 49.6138ZM15.3996 50.01C14.227 50.3466 13.9163 50.5517 13.5487 51.2308C12.8391 52.5416 12.9133 52.6378 14.6333 52.6378C15.4841 52.6378 16.2468 52.5315 16.3284 52.4015C16.4199 52.256 16.0155 52.1653 15.2762 52.1653C14.6158 52.1653 14.0157 52.0701 13.9425 51.9537C13.6601 51.5041 14.703 50.7444 16.0753 50.3995C17.6405 50.0065 18.3753 49.5541 17.397 49.586C17.0735 49.5966 16.1745 49.7875 15.3996 50.01ZM19.5702 51.2124C19.24 51.3161 18.5105 51.5242 17.9493 51.6744C17.117 51.8977 16.8368 52.1249 16.4317 52.9063C16.1584 53.4334 15.9817 53.911 16.0393 53.9675C16.2612 54.1857 21.9719 54.1489 22.0308 53.9287C22.0663 53.7957 21.0174 53.6729 19.5101 53.6337C17.5754 53.5834 16.9287 53.4891 16.9287 53.2569C16.9287 52.7145 17.7269 52.2305 19.21 51.8736C20.0024 51.6829 20.6318 51.434 20.6087 51.3206C20.5487 51.0262 20.2584 50.996 19.5702 51.2124ZM79.5546 52.9212C79.7131 53.0771 79.8428 53.396 79.8428 53.6299C79.8428 54.0008 79.6173 54.0551 78.0797 54.0551C77.1101 54.0551 74.814 54.1068 72.977 54.1699L69.6373 54.2847L73.9596 53.486C78.9512 52.5638 79.169 52.5418 79.5546 52.9212Z" fill="black" stroke="black" stroke-width="2" mask="url(#path-1-inside-1)"/>
</svg>
