<svg width="122" height="71" viewBox="0 0 122 71" fill="none" xmlns="http://www.w3.org/2000/svg">
<path d="M101.759 56.1765C101.369 56.3033 98.2487 57.1929 94.7387 58.3342C91.2288 59.4755 88.2381 60.4899 88.2381 60.6167C88.1081 60.6167 88.2397 60.8679 88.3697 60.9947C88.4997 61.1215 91.618 60.2335 95.2579 58.9654C98.8978 57.6974 102.018 56.8113 102.018 56.8113C102.538 57.4454 106.828 66.1963 106.698 66.3231C106.568 66.4499 102.798 67.0816 98.5082 67.8423C89.4084 69.2372 89.5372 69.238 89.9273 69.6185C90.1872 69.8721 120.737 68.9841 120.997 68.7305C121.257 68.4768 102.539 56.1765 101.759 56.1765ZM103.056 57.4461C103.186 57.573 106.828 59.981 111.118 62.7709C117.228 66.8287 118.788 68.0972 118.398 68.224C117.488 68.4776 108.777 68.6044 108.387 68.224C107.997 67.8436 102.797 57.3194 103.056 57.4461ZM106.658 67.0471C107.122 67.0456 107.282 67.1457 107.477 67.336C107.737 67.5895 107.868 67.9704 107.868 68.224C107.868 68.7312 107.608 68.7304 105.528 68.7305C104.228 68.7305 101.239 68.8589 98.8995 68.8588L94.6072 68.9836L100.197 67.9707C104.26 67.3368 105.883 67.0495 106.658 67.0471Z" fill="white"/>
<path d="M72.3336 51.1976C72.2321 51.1857 72.2496 51.263 72.2496 51.3582C72.2496 51.7386 72.378 51.8674 80.3078 56.9397L87.0681 61.1231L87.7188 64.2937C88.1089 66.0691 88.3697 67.8452 88.3697 68.3524V69.3653H81.4778C77.3178 69.3653 74.7176 69.2388 74.7176 69.112C74.8476 68.9852 76.5371 67.9708 78.487 66.8295C80.437 65.6882 82.1286 64.7986 82.1286 64.6718C82.1286 64.545 80.3078 65.4351 77.9679 66.5762C71.858 69.6197 71.9897 69.7449 81.6094 69.8718C86.9393 69.8718 89.2764 69.8721 89.2764 69.6185C89.2764 68.9844 87.9789 62.2641 87.7188 61.3764C87.4588 60.6155 86.1581 59.6027 80.0482 55.7984C74.0033 52.0893 72.6384 51.2333 72.3336 51.1976Z" fill="white"/>
<path d="M70.9481 42.6096C70.6881 42.7365 67.0498 44.6369 62.8899 47.0464C58.73 49.4557 55.0881 51.611 54.8281 51.8646C54.568 52.1182 54.4387 53.7663 54.3089 55.5416L54.1772 58.7122L63.537 64.2937C68.6069 67.3371 72.9001 69.8717 73.1601 69.8718C73.29 69.8718 73.418 69.2396 73.2881 68.6057C73.0281 66.4499 71.3393 43.75 71.3392 43.1161C71.3392 42.8625 71.2081 42.6096 70.9481 42.6096ZM70.4289 44.0041C70.5589 44.0041 71.0789 49.5841 71.5988 56.3048C72.1189 63.0256 72.5077 68.6036 72.3777 68.7305C72.2476 68.8573 69.0001 66.828 64.9702 64.4186C60.9404 62.0092 57.1672 59.7292 56.5172 59.2222C55.0873 58.3346 54.8285 58.4602 60.4183 56.5581C62.7583 55.7973 64.709 55.0351 64.579 55.0353C64.579 55.0353 62.497 55.544 60.0271 56.3048C57.5572 57.0657 55.3476 57.6993 55.0876 57.6993C54.8276 57.6993 54.6996 57.1905 54.9596 55.2884C55.0897 53.8935 55.2172 52.6263 55.3472 52.4995C55.6072 51.9922 70.1689 43.7505 70.4289 44.0041ZM67.3613 69.5472C67.3646 69.5477 67.3728 69.5502 67.3761 69.5507C67.3832 69.5503 67.3979 69.5477 67.4053 69.5472C67.3919 69.547 67.3749 69.5473 67.3613 69.5472Z" fill="white"/>
<path d="M58.3379 62.136C58.2078 62.0092 55.0896 62.8991 51.4496 64.0406L44.8174 66.0698L44.1703 67.8423C43.7802 68.8568 43.5194 69.7469 43.5194 69.7469C43.5194 69.8737 49.8872 70.0002 57.6871 70C67.0469 70 71.8567 69.8737 71.7268 69.7469C71.5968 69.4933 66.7897 69.4935 58.2099 69.4936C50.9301 69.4936 44.8194 69.3652 44.6894 69.3652C44.4294 69.1117 45.0782 67.4615 45.4682 66.9543C45.5982 66.7007 49.3697 66.0674 53.7896 65.3067C58.2095 64.5458 61.7182 63.9141 61.5882 63.7873C61.4583 63.6605 61.0698 63.6605 60.5499 63.7873C59.1199 64.1677 49.7589 65.6866 49.6289 65.5598C49.4989 65.433 54.9595 63.7865 57.2995 63.1524C58.7295 62.772 59.3778 62.136 58.3379 62.136ZM53.4788 63.0847C53.467 63.0997 53.4257 63.1043 53.3874 63.1097C53.4195 63.1033 53.4471 63.0916 53.4788 63.0847ZM103.36 69.1798C103.335 69.2764 103.315 69.3375 103.294 69.4188C103.362 69.4169 103.416 69.4135 103.484 69.4116C103.445 69.3326 103.397 69.2602 103.36 69.1798Z" fill="white"/>
<path d="M48.1737 62.2573C47.5542 62.2288 46.4769 62.5186 44.6894 63.1524C42.0895 64.0401 41.9575 64.1653 41.3075 65.3067C40.1375 67.9696 40.14 67.8424 42.0898 67.8424C42.9998 67.8424 43.779 67.716 43.779 67.5892C43.779 67.4623 43.2606 67.3359 42.7407 67.336C42.2208 67.336 41.5691 67.2111 41.4391 67.2111C41.3091 67.0843 41.9579 65.0538 42.2178 64.8002C42.2178 64.8002 42.999 64.9282 43.779 65.1818C44.5591 65.4354 45.4698 65.56 45.5998 65.5598C45.7299 65.5598 45.3378 65.307 44.5578 65.0534C43.7779 64.7998 43.2595 64.5453 43.5194 64.4185C43.9095 64.0382 47.6789 62.8991 48.4589 62.8993C48.7189 62.8993 48.9802 62.7728 48.8502 62.646C48.7526 62.4083 48.5454 62.2743 48.1737 62.2573Z" fill="white"/>
<path d="M48.4589 58.2058L43.5194 58.3342L43.5231 58.3305C43.5155 58.3316 43.5103 58.3319 43.5048 58.3305C43.5039 58.332 43.5032 58.3341 43.5012 58.3342H43.4938H43.4317C43.4324 58.3356 43.4153 58.3263 43.4098 58.3235C43.4091 58.323 43.4071 58.3239 43.4061 58.3235C43.3124 58.4634 43.2175 58.5898 43.1283 58.7122H48.1993C51.8392 58.7122 53.3985 58.7126 53.3985 58.4591C53.3985 58.2053 51.9689 58.2055 48.4589 58.2058ZM42.7407 59.4755C42.4807 59.8559 42.8682 59.9811 47.8082 61.6296C52.098 63.0245 54.4388 63.532 53.1388 62.7709C51.9689 62.1368 42.8707 59.3487 42.7407 59.4755Z" fill="white"/>
<path d="M52.0164 29.3887C51.9677 29.3887 51.9689 29.4839 51.9689 29.674C51.9689 29.9276 53.5272 31.4497 55.3472 32.8446C57.2972 34.3662 58.7291 35.6351 58.7291 35.7619C58.7291 35.8888 57.4283 37.7897 55.7384 39.9454C54.0484 42.1012 52.8794 44.004 52.8792 44.004C53.0092 44.1308 54.4381 42.3564 55.998 40.0738C57.8179 37.5377 59.12 36.1416 59.38 36.2684C59.6399 36.3952 61.3275 37.7889 63.2774 39.3106C65.8773 41.3395 66.6578 42.2275 66.5278 42.4812C66.3977 42.7348 61.4583 45.9046 55.7384 49.582C50.0185 53.2594 45.3404 56.3028 45.3403 56.4296C45.4703 56.5564 50.2778 53.3862 56.2575 49.582C65.7473 43.4953 67.1777 42.734 67.6978 42.9876C68.6077 43.4948 68.8689 43.1172 68.0889 42.3564C67.6989 42.1028 64.1902 39.1854 60.2903 36.0151C56.3904 32.8449 52.7501 29.9276 52.3601 29.674C52.1651 29.4838 52.0651 29.3887 52.0164 29.3887Z" fill="white"/>
<path d="M30.7303 40.0739C30.5515 40.0104 30.3903 40.0734 30.3902 40.327C30.3902 40.7075 34.8101 50.0917 35.0701 50.3453C35.8501 51.1061 35.201 49.3296 33.381 45.3986C32.341 43.1161 31.299 40.9608 31.169 40.5803C31.104 40.3267 30.9091 40.1372 30.7303 40.0739Z" fill="white"/>
<path d="M37.5343 42.581C37.2967 42.6167 37.1504 42.8306 37.1504 43.116C37.0205 43.4964 36.3709 46.6663 35.7209 50.2169L34.4193 56.6829L32.3389 59.6003C31.169 61.122 30.2586 62.6457 30.2586 62.8993C30.2586 63.6601 33.2505 68.8589 33.6405 68.8588C33.7705 68.8588 35.9784 66.4502 38.4484 63.7873L43.0003 58.7122H43.2379C43.3477 58.5654 43.4464 58.4425 43.5378 58.3342H43.5194L44.2983 57.3178C45.8582 55.4156 51.7073 47.8084 51.8372 47.4279C51.8969 47.2825 51.9237 47.1793 51.936 47.1034C51.8459 47.12 51.7566 47.1068 51.6654 47.107C51.1591 47.5325 49.9835 48.9393 48.1993 51.2333C44.8194 55.6716 35.5896 66.3219 36.4996 64.8002C36.6296 64.6734 39.3608 60.3624 42.7407 55.4168C46.1206 50.3445 48.7186 46.285 48.7186 46.1582C48.5886 46.0314 49.109 45.2718 41.4391 56.8113C37.6692 62.5177 34.2896 67.4639 34.1596 67.7175C33.8997 67.9712 33.5105 67.462 32.4706 65.5598L31.169 62.8993L33.2493 59.9819L35.3296 57.0645L36.7592 49.9637C38.3191 41.7212 38.1875 42.6096 37.7976 42.6096C37.7001 42.5779 37.6136 42.5692 37.5343 42.581ZM30.4377 65.007C30.2264 64.9912 29.9348 65.055 29.4798 65.1818C29.0898 65.3086 28.0495 65.5598 27.3994 65.8131C26.3594 66.0667 25.9707 66.4483 25.4507 67.336C25.0606 67.97 24.9279 68.6036 24.9279 68.7305C25.1878 68.9841 32.6001 68.9841 32.7301 68.7305C32.7301 68.6036 31.4297 68.3521 29.4798 68.3524C27.0098 68.2256 26.0978 68.2228 26.0978 67.8424C26.0978 67.2084 27.1386 66.577 29.0886 66.0699C30.1285 65.8163 30.9093 65.5598 30.9093 65.3067C30.7794 65.1164 30.6489 65.0229 30.4377 65.007Z" fill="white"/>
<path d="M32.4778 46.2688C32.2645 46.2688 32.1427 46.6967 31.9477 47.5527C31.8177 48.4404 31.4289 50.3429 31.169 51.8646C30.6489 54.4007 30.5194 54.7828 28.5694 57.6993C27.3994 59.3479 26.3611 60.8679 26.3611 60.9947C26.3611 61.6288 28.4406 64.8018 28.9607 64.9286C29.3506 65.0554 29.3478 64.6742 28.4378 63.1524C27.7878 62.1381 27.4011 61.1236 27.5311 60.8699C27.661 60.6163 29.2195 59.4739 30.9094 58.2058C32.7294 56.9377 34.1597 55.7968 34.1597 55.67C34.1597 55.4164 33.2509 55.922 32.211 56.6829C31.171 57.4438 29.7402 58.4601 29.2202 58.8406L28.1782 59.6003L28.829 58.7122C29.219 58.205 29.8702 57.1925 30.3901 56.3048C31.1701 55.0367 31.5609 54.0219 32.211 50.8517C32.7309 48.4423 32.8602 46.665 32.7301 46.4115C32.6326 46.3164 32.549 46.2688 32.4778 46.2688ZM26.4891 63.1524C26.2291 63.1524 25.0611 63.4053 24.0211 63.6589C22.4612 64.0393 22.0695 64.2941 21.5496 65.1818C20.6396 66.8303 20.7692 66.9543 22.9792 66.9543C24.1491 66.9543 25.0611 66.8279 25.1911 66.7011C25.3211 66.5743 24.7979 66.4476 23.7579 66.4479C22.8479 66.4479 22.0688 66.3215 22.0688 66.1947C21.6787 65.6874 23.11 64.6726 24.7999 64.1654C26.8799 63.6581 27.789 63.1525 26.4891 63.1524Z" fill="white"/>
<path d="M11.9741 16.3462C11.9883 16.5908 11.9371 16.8399 11.8389 17.0736C11.7528 17.9178 11.6282 19.1451 11.5391 20.7971C11.2791 23.0797 11.1495 25.1105 11.2795 25.2373C11.4095 25.4909 23.7596 34.3664 25.0596 35.1271C25.4495 35.3807 25.4511 35.2528 25.1912 34.7455C25.0612 34.3651 22.0689 32.2102 18.5589 29.674C15.179 27.2647 12.4511 25.1109 12.5811 24.9841C12.5811 24.9841 13.4882 24.6029 14.3982 24.3492C15.3082 24.0956 16.3502 23.8412 16.6101 23.7144C16.8701 23.5876 16.9997 23.4612 16.8697 23.4612C16.7398 23.3344 15.6998 23.5872 14.5298 23.9677C13.3598 24.3481 12.1898 24.6009 12.1898 24.4741C12.0599 24.3473 12.1915 22.5728 12.3215 20.5439C12.4498 19.2918 12.5136 18.3233 12.5152 17.6122L12.4897 17.5908L12.4348 17.5301L12.3982 17.4802L12.3617 17.4267C12.2773 17.2805 12.2764 17.2835 12.263 17.2484C12.229 17.1606 12.2291 17.1583 12.2264 17.1486C12.2264 17.1485 12.2155 17.1131 12.2154 17.1129C12.2136 17.1066 12.0018 16.4345 11.9741 16.3462ZM29.5457 16.4709C29.5132 16.4868 29.4798 16.5502 29.4798 16.6136C29.4798 16.7404 31.1677 17.5024 33.1177 18.1365C35.1977 18.8974 39.3597 20.2906 42.3495 21.4319L47.9398 23.4612L49.2378 25.6153L50.5393 27.773L51.0586 35.5088C51.3185 39.8201 51.5793 43.8764 51.7093 44.5105C51.8393 45.525 51.8398 45.7802 51.4497 45.7802C50.9298 45.7802 29.7403 36.6473 29.2202 36.14C28.8303 35.8864 28.1794 23.968 28.5695 23.7144C28.6995 23.5876 31.0386 24.0953 33.7686 24.6025C36.4985 25.2365 38.8376 25.6153 38.9676 25.6153C38.9676 25.6153 35.0705 24.6025 30.1307 23.4612C25.1908 22.3199 21.0309 21.3054 20.7709 21.1786C20.5109 21.0518 20.1189 21.0518 19.7289 21.1786C18.8189 21.5591 18.9501 21.5587 23.63 22.5732C25.7099 22.9535 27.5291 23.4592 27.6591 23.586C28.0491 23.8396 28.5678 33.3522 28.4379 36.0151L28.3099 37.5381L22.46 29.2924C19.21 24.7273 16.3493 20.7991 15.9594 20.6723C15.4394 20.4187 15.4382 20.4166 15.5681 20.7971C16.4782 22.192 28.0479 38.4237 28.4379 38.8042C28.9578 39.3114 51.1907 46.7931 52.1006 46.7931C52.6205 46.7931 52.6173 47.1735 51.8373 36.5216L51.1902 27.5199L49.8886 25.3622C48.7186 23.46 48.4595 23.0803 47.0294 22.5732C44.0396 21.4319 29.9978 16.6136 29.6078 16.6136C29.6078 16.4868 29.5782 16.455 29.5457 16.4709ZM28.8985 16.6742C28.8886 16.6748 28.879 16.6768 28.8692 16.6778C28.8365 16.7122 28.7909 16.7576 28.7815 16.7669C28.7771 16.7714 28.766 16.7818 28.756 16.7919C28.7519 16.8032 28.7463 16.8205 28.745 16.824C28.7395 16.8394 28.7356 16.8485 28.7303 16.8633L28.8985 16.6742ZM20.6978 17.0595C20.6242 17.1952 20.5429 17.3383 20.4784 17.466C20.5363 17.3722 20.5887 17.2753 20.6465 17.1807C20.6656 17.1359 20.6785 17.1043 20.6978 17.0595ZM29.3482 36.9068C29.9069 36.8956 31.8357 37.7572 37.9293 40.4518C42.2192 42.2272 45.5998 43.8756 45.5998 43.8756C45.4699 44.0024 44.2992 43.624 34.4193 40.327C29.2195 38.5517 29.2203 38.5506 29.2202 37.6629C29.1715 37.2349 29.0131 36.9134 29.3482 36.9068ZM30.6901 40.0738C30.7108 40.0785 30.7316 40.0832 30.7522 40.0881C30.7448 40.085 30.7376 40.0764 30.7303 40.0738C30.7152 40.0685 30.7048 40.0774 30.6901 40.0738ZM38.0134 42.5989C38.0156 42.6007 38.0185 42.6 38.0206 42.6024C38.0182 42.6014 38.0158 42.5999 38.0134 42.5989Z" fill="white"/>
<path d="M7.45511 0.26842C7.3556 0.280404 7.24875 0.319207 7.11875 0.382547C6.98875 0.382547 6.20958 0.633856 5.42961 0.760651C4.64962 1.01424 4.13166 1.27023 4.13166 1.52382C4.39166 2.53829 13.8806 18.1354 14.0106 17.7549C14.1406 17.5013 13.0986 15.4723 11.7986 13.1898C5.94877 3.17193 6.20958 3.80602 6.59958 2.91834C6.85957 2.41116 7.24997 1.90227 7.50996 1.64867C8.02994 1.14149 8.41873 1.39622 11.7986 4.31286C15.4386 7.35628 15.9594 7.73747 15.9594 7.23017C15.9594 6.97658 10.7599 2.53909 8.67994 1.01744C7.99746 0.446801 7.7537 0.232813 7.45511 0.26842ZM6.74583 1.12803C6.92457 1.14389 6.99079 1.27023 6.99079 1.52382C6.99079 1.90432 6.20878 2.91834 5.94877 2.91834C5.81878 2.91834 5.55961 2.66395 5.42961 2.28356C5.16961 1.77627 5.17082 1.64913 5.82081 1.39554C6.2758 1.20529 6.56708 1.11216 6.74583 1.12803ZM4.40588 3.18939C4.27563 3.1523 4.14629 3.23458 4.00004 3.42483C3.87005 3.67842 5.03961 6.5938 6.59958 9.89082C8.93953 15.2168 9.4591 16.1064 10.3691 16.6136C11.6691 17.3745 11.6707 16.74 10.5007 15.7256C9.59072 14.9647 6.08 7.48468 5.17002 4.44125C4.84502 3.64875 4.62296 3.25136 4.40588 3.18939ZM17.9081 6.72379C17.7781 6.85059 17.1289 7.1011 16.219 7.60828L14.7894 8.24317V13.8247V19.4026L16.219 20.1623C18.0389 21.0499 18.428 20.797 16.7381 19.6559L15.4402 18.8961V13.9495C15.4402 8.24305 15.0506 8.6231 18.6905 10.7788C19.9905 11.5397 21.158 12.1734 21.418 12.1734C21.678 12.1734 20.8989 11.6662 19.7289 11.0321C17.9089 10.0176 17.6501 9.76722 17.7801 9.00633C17.7801 8.49915 18.0414 7.99186 18.1713 7.86506C18.5613 7.48468 22.1989 9.51272 23.2388 10.654C23.7588 11.1613 24.2787 11.5421 24.4088 11.5421C25.5788 11.5421 23.2395 9.51157 20.3797 7.98992C19.0797 7.35583 18.0381 6.72379 17.9081 6.72379ZM17.356 7.8258C17.5617 7.82832 17.5514 8.11557 17.389 8.74955C17.1289 9.63723 16.8706 9.76517 16.3505 9.13119C15.8306 8.4971 15.9581 8.4987 16.7381 8.11831C17.0306 7.92806 17.2327 7.82432 17.356 7.8258ZM31.8856 8.98853C31.2681 9.03601 30.1302 9.19579 28.0502 9.51272C26.2303 9.76642 24.5404 10.1457 24.5403 10.2725C24.0204 10.7796 24.9296 10.7812 27.3995 10.4009C28.8294 10.1473 30.1307 10.0192 30.1307 10.0192C30.1307 10.0192 29.7403 10.272 29.2202 10.5257C28.4403 11.0329 28.4387 11.0324 29.0887 10.7788C29.4787 10.652 30.1282 10.5257 30.5182 10.5257C31.2982 10.5257 32.5986 9.63837 32.5986 9.13119C32.5986 9.00439 32.5032 8.94094 31.8856 8.98853ZM33.5711 10.6469C32.6875 10.7242 30.6158 11.0333 28.1782 11.4137C25.0584 11.9209 22.1989 12.4282 22.0689 12.555C21.6788 12.9354 18.0394 20.9235 18.2993 21.0503C18.4081 21.1565 18.8049 21.0611 19.2317 20.8863C19.6316 20.5713 19.9575 20.4613 20.3284 20.4654C21.2582 20.1101 22.692 19.6021 24.2808 19.021L28.0502 17.6265L30.6498 14.7127C32.0797 13.0642 33.3805 11.5425 33.6406 11.2889C33.9006 11.0353 34.0281 10.7809 34.0281 10.654C34.0281 10.6224 33.8656 10.6211 33.5711 10.6469ZM31.4872 11.6491C31.7946 11.6785 31.1682 12.2051 29.3482 13.3146C27.7883 14.3291 26.3579 15.0907 26.0979 15.0908C25.578 15.0908 23.1104 13.1902 23.3703 12.9365C23.3703 12.8097 30.1307 11.667 31.3007 11.667C31.3819 11.6511 31.4432 11.645 31.4872 11.6491ZM31.041 12.8082C31.301 12.8082 30.5178 13.6982 29.6078 14.7127C27.9179 16.6148 27.7899 16.6124 27.1399 16.2321L26.3612 15.7256L28.5695 14.331C29.8694 13.5703 30.9111 12.935 31.041 12.8082ZM22.4417 13.468C22.7586 13.4026 23.368 13.8543 24.9279 15.0908C26.0979 15.9784 27.0104 16.8664 26.8803 17.1201C26.7503 17.3737 19.7309 20.1627 19.6009 19.909C19.4709 19.7822 21.8104 14.457 22.2004 13.6963C22.2654 13.5695 22.3361 13.4898 22.4417 13.468ZM64.579 55.0353C64.579 55.0353 64.2492 55.1212 64.1513 55.1458C64.1591 55.1712 64.162 55.1817 64.1695 55.2065C64.2682 55.1626 64.6021 55.0353 64.579 55.0353Z" fill="white"/>
</svg>
